<svg width="29" height="29" fill="none" xmlns="http://www.w3.org/2000/svg"><path fill-rule="evenodd" clip-rule="evenodd" d="M17.8625 1.85603C18.4145 1.85603 18.8625 2.30413 18.8625 2.85625C18.8625 3.40838 18.4145 3.85648 17.8625 3.85648H8.17187C4.82787 3.85648 2.66653 6.15567 2.66653 9.71647V20.4949C2.66653 24.1024 4.77587 26.3429 8.17187 26.3429H19.6439C22.9879 26.3429 25.1492 24.0477 25.1492 20.4949V11.1075C25.1492 10.5553 25.5972 10.1072 26.1492 10.1072C26.7012 10.1072 27.1492 10.5553 27.1492 11.1075V20.4949C27.1492 25.1893 24.1332 28.3433 19.6439 28.3433H8.17187C3.68253 28.3433 0.666534 25.1893 0.666534 20.4949V9.71647C0.666534 5.01541 3.68253 1.85603 8.17187 1.85603H17.8625ZM20.6831 10.9645C21.1204 11.3032 21.2004 11.9314 20.8617 12.3675L16.9551 17.4086C16.7924 17.6193 16.5524 17.7567 16.2884 17.7887C16.0217 17.8247 15.7577 17.7474 15.5471 17.5833L11.7897 14.6306L8.41507 19.017C8.21774 19.273 7.92174 19.4077 7.62174 19.4077C7.4084 19.4077 7.19374 19.3397 7.0124 19.201C6.57507 18.8636 6.4924 18.2355 6.82974 17.798L10.8204 12.6102C10.9831 12.3981 11.2244 12.2608 11.4884 12.2274C11.7577 12.1928 12.0217 12.2674 12.2311 12.4342L15.9911 15.3882L19.2804 11.1432C19.6191 10.7044 20.2457 10.6231 20.6831 10.9645ZM24.6231 0.732975C26.5884 0.732975 28.1857 2.33067 28.1857 4.29645C28.1857 6.26222 26.5884 7.86125 24.6231 7.86125C22.6591 7.86125 21.0604 6.26222 21.0604 4.29645C21.0604 2.33067 22.6591 0.732975 24.6231 0.732975ZM24.6231 2.73343C23.7617 2.73343 23.0604 3.43359 23.0604 4.29645C23.0604 5.15797 23.7617 5.8608 24.6231 5.8608C25.4844 5.8608 26.1857 5.15797 26.1857 4.29645C26.1857 3.43359 25.4844 2.73343 24.6231 2.73343Z" fill="white"/></svg>