<?xml version="1.0" encoding="UTF-8"?><!DOCTYPE svg PUBLIC "-//W3C//DTD SVG 1.1//EN" "http://www.w3.org/Graphics/SVG/1.1/DTD/svg11.dtd"><svg xmlns="http://www.w3.org/2000/svg" xmlns:xlink="http://www.w3.org/1999/xlink"><defs><clipPath id="a"><path fill="#fff" d="M0 0h72v18H0z"/></clipPath><linearGradient id="a" x1="19" y1="-8" x2="19" y2="32" gradientUnits="userSpaceOnUse"><stop stop-color="#FE390C"/><stop offset="1" stop-color="#521B0E"/></linearGradient><clipPath id="a"><path fill="#fff" transform="translate(.696 .212)" d="M0 0h112.219v32H0z"/></clipPath><clipPath id="a"><path fill="#fff" d="M0 0h64.448v18H0z"/></clipPath></defs><symbol id="basket"><g fill="none"><circle cx="21" cy="21" r="21" fill="#fff" fill-opacity=".1"/><path d="M29.283 16.515a9.27 9.27 0 0 0-3.399-3.398 9.142 9.142 0 0 0-4.684-1.25 9.148 9.148 0 0 0-4.685 1.25 9.267 9.267 0 0 0-3.398 3.398 9.146 9.146 0 0 0-1.25 4.685c0 1.692.416 3.255 1.25 4.686a9.262 9.262 0 0 0 3.399 3.397 9.142 9.142 0 0 0 4.684 1.25 9.148 9.148 0 0 0 4.685-1.25 9.27 9.27 0 0 0 3.399-3.398c.833-1.43 1.25-2.993 1.25-4.685 0-1.692-.417-3.254-1.251-4.685ZM21.2 13.416c1.867 0 3.52.598 4.965 1.791-.858 1.096-2.133 1.998-3.826 2.707-.935-1.692-1.95-3.105-3.044-4.237a7.197 7.197 0 0 1 1.905-.26Zm-6.057 2.93a7.575 7.575 0 0 1 2.53-2.071c1.131 1.12 2.17 2.52 3.117 4.2-1.866.56-3.84.84-5.918.84-.535 0-.939-.012-1.213-.038a7.978 7.978 0 0 1 1.484-2.93ZM13.416 21.2c0-.05.003-.112.01-.186.006-.075.009-.137.009-.187.237.013.598.018 1.083.018 2.489 0 4.803-.342 6.943-1.026.175.348.356.74.542 1.176-1.232.273-2.496.939-3.79 1.997-1.295 1.059-2.24 2.172-2.837 3.341-1.307-1.48-1.96-3.191-1.96-5.133Zm7.784 7.784c-1.768 0-3.354-.548-4.76-1.642.56-1.107 1.421-2.167 2.585-3.174 1.163-1.008 2.318-1.636 3.463-1.885a27.478 27.478 0 0 1 1.456 6.178 7.621 7.621 0 0 1-2.744.523Zm6.608-3.696a7.794 7.794 0 0 1-2.408 2.446 26.868 26.868 0 0 0-1.287-5.675c.87-.062 1.647-.094 2.333-.094.746 0 1.574.032 2.482.094a7.557 7.557 0 0 1-1.12 3.23Zm-1.157-4.666c-1.083 0-2.084.043-3.006.13a25.26 25.26 0 0 0-.634-1.512c1.928-.845 3.296-1.872 4.105-3.08 1.12 1.32 1.73 2.825 1.83 4.517a46.694 46.694 0 0 0-2.295-.055Z" fill="#fff"/></g></symbol><symbol id="behance"><g fill="none"><path d="M11.975 22.742c.571 0 1.113-.053 1.623-.171.516-.119.975-.305 1.362-.582.388-.265.708-.63.941-1.094.234-.459.346-1.055.346-1.776 0-1.413-.381-2.416-1.139-3.025-.76-.6-1.772-.899-3.017-.899h-6.29v7.547h6.174Zm-.319-11.666c1.025 0 1.873-.254 2.545-.77.666-.505.989-1.343.989-2.492 0-.637-.108-1.164-.323-1.573a2.443 2.443 0 0 0-.891-.954 3.5 3.5 0 0 0-1.274-.48 7.404 7.404 0 0 0-1.488-.136H5.802v6.405h5.854ZM12.404.003c1.257 0 2.39.113 3.428.347 1.03.228 1.91.61 2.653 1.132.733.521 1.305 1.215 1.716 2.09.4.861.601 1.94.601 3.215 0 1.38-.3 2.532-.9 3.453-.605.92-1.494 1.675-2.682 2.26 1.618.486 2.815 1.34 3.609 2.554.798 1.222 1.188 2.685 1.188 4.399 0 1.39-.255 2.586-.764 3.592a6.914 6.914 0 0 1-2.078 2.482c-.87.644-1.87 1.115-2.99 1.422a12.82 12.82 0 0 1-3.433.461H.017V.003h12.387ZM36.269 12.225c-.622-.717-1.674-1.105-2.957-1.105-.835 0-1.526.147-2.079.445a4.22 4.22 0 0 0-1.323 1.094c-.337.44-.568.902-.701 1.398a6.548 6.548 0 0 0-.239 1.308h8.503c-.125-1.39-.581-2.418-1.204-3.14Zm-6.005 10.426c.783.797 1.914 1.199 3.38 1.199 1.053 0 1.964-.278 2.728-.833.758-.552 1.218-1.145 1.397-1.758h4.601c-.739 2.388-1.861 4.094-3.393 5.12-1.512 1.031-3.358 1.545-5.508 1.545-1.499 0-2.848-.254-4.058-.751a8.621 8.621 0 0 1-3.073-2.135c-.829-.926-1.472-2.02-1.931-3.306-.454-1.279-.684-2.695-.684-4.23 0-1.485.239-2.87.703-4.152.475-1.285 1.13-2.395 1.992-3.325a9.444 9.444 0 0 1 3.083-2.213c1.194-.538 2.51-.807 3.968-.807 1.61 0 3.019.322 4.227.981a8.529 8.529 0 0 1 2.967 2.629c.776 1.1 1.327 2.357 1.673 3.766.34 1.409.461 2.879.363 4.42H28.97c0 1.568.51 3.053 1.294 3.85ZM50.12.003v10.334h.12c.664-1.15 1.503-1.986 2.534-2.504 1.03-.522 2.035-.78 3.014-.78 1.395 0 2.539.191 3.432.585.894.402 1.6.945 2.119 1.652.508.704.867 1.562 1.077 2.574.207 1.01.314 2.123.314 3.351V27.41h-5.251V16.205c0-1.634-.245-2.862-.732-3.666-.488-.804-1.354-1.208-2.603-1.208-1.413 0-2.434.447-3.067 1.328-.644.881-.956 2.332-.956 4.351v10.4h-5.25V.003h5.25ZM76.745 18.192a9.7 9.7 0 0 1-1.056.289c-.383.076-.784.137-1.199.191-.41.052-.834.112-1.244.189-.39.08-.782.18-1.154.31-.38.129-.712.3-.985.517-.283.22-.509.494-.681.824-.168.331-.258.761-.258 1.269 0 .485.09.894.258 1.23.172.333.398.593.694.786.295.192.642.328 1.027.403a5.94 5.94 0 0 0 1.209.11c1.028 0 1.82-.177 2.385-.534.561-.36.984-.788 1.249-1.287.269-.5.432-1.004.485-1.512.068-.51.1-.923.1-1.232v-2.039c-.227.21-.494.371-.83.486ZM66.46 10.469A6.29 6.29 0 0 1 68.51 8.43c.834-.516 1.766-.879 2.814-1.096a14.924 14.924 0 0 1 3.146-.33c.953 0 1.917.07 2.91.21.977.141 1.87.417 2.68.828.809.413 1.468.979 1.979 1.716.518.72.78 1.694.78 2.901v10.343c0 .899.052 1.753.144 2.571.104.826.372 1.445.625 1.85l-5.337-.013c-.157-.237-.287-.609-.347-.932a8.089 8.089 0 0 1-.13-.977c-.83.898-1.805 1.528-2.94 1.888a11.417 11.417 0 0 1-3.454.535c-.904 0-1.746-.12-2.535-.35a5.8 5.8 0 0 1-2.053-1.073 5.03 5.03 0 0 1-1.376-1.847c-.329-.745-.499-1.631-.499-2.656 0-1.13.195-2.06.58-2.789.373-.728.86-1.314 1.467-1.748a6.29 6.29 0 0 1 2.061-.98c.77-.217 1.552-.396 2.328-.522a41.905 41.905 0 0 1 2.318-.307 13.24 13.24 0 0 0 2.026-.345c.585-.152 1.054-.383 1.398-.676.339-.293.501-.72.478-1.288 0-.587-.1-1.056-.28-1.405a2.104 2.104 0 0 0-.727-.804 2.84 2.84 0 0 0-1.056-.388 8.676 8.676 0 0 0-1.298-.096c-1.023 0-1.832.238-2.405.694-.59.469-.93 1.241-1.034 2.32h-5.242c.076-1.288.38-2.35.928-3.195ZM90.657 7.57v2.767h.117c.661-1.15 1.514-1.986 2.574-2.504a7.222 7.222 0 0 1 3.243-.78c1.401 0 2.552.191 3.441.585.904.402 1.608.945 2.118 1.652.522.704.882 1.562 1.091 2.574.212 1.01.316 2.123.316 3.351V27.41h-5.252V16.205c0-1.634-.247-2.862-.737-3.666-.497-.804-1.354-1.32-2.612-1.32-1.422 0-2.457.558-3.094 1.44-.64.881-.957 2.332-.957 4.351v10.4h-5.197V7.57h4.95ZM115.185 11.12c-.84 0-1.534.193-2.092.595-.569.4-1.034.909-1.389 1.538a6.906 6.906 0 0 0-.756 2.075 12.192 12.192 0 0 0-.222 2.252c0 .72.08 1.45.222 2.194.153.741.387 1.41.719 2.02a4.354 4.354 0 0 0 1.348 1.477c.561.386 1.245.579 2.056.579 1.258 0 2.222-.366 2.897-1.092.673-.73 1.089-1.71 1.264-2.938h5.047c-.347 2.632-1.328 4.643-2.944 6.03-1.621 1.376-3.697 2.074-6.225 2.074-1.429 0-2.727-.254-3.924-.751-1.195-.505-2.21-1.2-3.046-2.097-.836-.9-1.485-1.968-1.96-3.21-.464-1.245-.697-2.612-.697-4.095 0-1.536.216-2.967.646-4.29.428-1.317 1.061-2.46 1.904-3.417a8.67 8.67 0 0 1 3.065-2.252c1.203-.538 2.578-.807 4.122-.807 1.129 0 2.213.159 3.261.457a8.444 8.444 0 0 1 2.795 1.402 7.437 7.437 0 0 1 2.011 2.335c.51.93.801 2.043.882 3.316h-5.124c-.339-2.265-1.627-3.395-3.86-3.395ZM27.902 1.842h10.65v2.705h-10.65V1.842ZM138.205 12.225c-.63-.717-1.69-1.105-2.957-1.105-.834 0-1.527.147-2.09.445-.542.295-1.036.662-1.369 1.094a4.18 4.18 0 0 0-.709 1.398c-.124.483-.211.92-.234 1.308h8.567c-.14-1.39-.585-2.418-1.208-3.14Zm-6.069 10.426c.785.797 1.97 1.199 3.447 1.199 1.051 0 1.96-.278 2.719-.833.76-.552 1.23-1.145 1.398-1.758h4.601c-.735 2.388-1.864 4.094-3.386 5.12-1.518 1.031-3.356 1.545-5.514 1.545-1.503 0-2.856-.254-4.058-.751a8.586 8.586 0 0 1-3.068-2.135c-.838-.926-1.48-2.02-1.937-3.306-.454-1.279-.68-2.695-.68-4.23 0-1.485.234-2.87.699-4.152.471-1.285 1.14-2.395 1.997-3.325a9.487 9.487 0 0 1 3.075-2.213c1.195-.538 2.522-.807 3.972-.807 1.607 0 3.023.322 4.219.981a8.456 8.456 0 0 1 2.969 2.629c.776 1.1 1.333 2.357 1.676 3.766a14.89 14.89 0 0 1 .37 4.42h-13.789c0 1.568.502 3.053 1.29 3.85Z" fill="#A7AAB4"/></g></symbol><symbol id="burger-menu" viewBox="0 0 12 12"><g fill="#FE390C"><path d="M.5 5.5h11v1H.5zM.5 2.5h11v1H.5zM.5 8.5h11v1H.5z"/></g></symbol><symbol id="changebee"><g fill="none"><path d="M103.17 16.48a1.185 1.185 0 0 0-1.634.321c-.064.096-1.473 2.146-3.939 2.146-.96 0-1.697-.288-2.177-.897-.032-.032-.064-.096-.097-.128 0 0 .033 0 .033-.032 5.828-3.33 5.764-6.18 5.508-7.238-.353-1.28-1.473-2.113-2.915-2.113-3.33 0-5.54 3.715-5.54 7.173 0 .449.032.865.096 1.281-1.185.865-3.01 1.954-4.611 1.954-.93 0-1.634-.288-2.082-.833a2.618 2.618 0 0 1-.384-.64c4.451-1.281 6.148-4.132 5.828-6.405-.192-1.474-1.313-2.53-2.69-2.53-3.106 0-5.348 3.266-5.7 6.469-.609-.064-1.121-.224-1.602-.545.065-.512.129-1.024.129-1.505 0-1.057-.193-1.953-.577-2.658-.512-.929-1.377-1.441-2.37-1.441-.544 0-1.025.288-1.313.8-.576 1.057-.192 3.107.865 4.74.192.32.416.609.672.897-.576 1.857-1.793 3.619-3.33 3.619-.705 0-1.217-.224-1.666-.673-.608-.672-1.024-1.857-1.152-3.362 4.355-5.445 6.5-10.793 5.284-13.323C77.389.693 76.62.212 75.692.212c-3.01 0-4.804 3.907-5.508 11.946a26.22 26.22 0 0 0-.064 1.729c-1.602 2.177-4.26 5.028-6.63 5.028-.672 0-1.184-.224-1.505-.705-.032-.032-.064-.096-.096-.128.032 0 .064-.032.096-.064 5.861-3.779 5.765-6.63 5.477-7.654-.32-1.12-1.345-1.857-2.658-1.857-3.395 0-5.7 3.907-5.7 7.557 0 .32.031.641.063.961-1.089.769-1.953 1.473-2.818 2.146.128-.993.32-2.274.544-4.163.065-.385.096-.705.129-.865.192-1.377-2.082-1.665-2.338-.128-.256 1.601-.929 4.9-2.819 4.9-1.12 0-1.729-1.25-1.6-3.075.16-2.882 1.729-5.22 3.65-5.22.673 0 .993.705.993.705.608 1.089 2.498.16 2.081-.993-.192-.512-.8-1.825-3.01-1.825-4.483 0-5.892 4.547-6.085 7.557-.032.48-.032.961.032 1.442-.64.768-1.377 1.409-2.113 1.409-.705 0-1.153-.8-.897-2.626.256-1.762.448-3.203.545-4.035.544-3.811-4.228-3.715-4.228-3.715s-.064-2.242-1.89-2.242c-.928 0-1.793.736-1.793 2.114 0 1.28 1.057 1.921 1.057 1.921-.224 1.986-1.153 8.583-3.234 8.583-.93 0-.993-.993-.897-1.698.128-.96.288-2.626.352-3.042.192-1.377-2.081-1.665-2.338-.128-.256 1.601-.928 4.9-2.818 4.9-1.12 0-1.73-1.41-1.633-3.139.16-2.914 1.73-5.156 3.65-5.156.673 0 .993.705.993.705.513 1.089 2.466.32 2.082-.993-.16-.576-.8-1.825-3.01-1.825-4.484 0-5.893 4.547-6.085 7.558-.032.48-.032.928 0 1.345-.64.864-1.41 1.505-2.146 1.505-.672 0-1.185-.352-1.056-1.858.064-.704.864-5.54.832-6.405-.096-1.473-.768-2.113-2.402-2.113-1.729 0-3.01.896-3.554 1.44 0 0 .8-6.084.96-7.269.16-1.217-2.21-1.249-2.338 0-.064.545-.704 5.348-1.28 9.832-1.346 2.946-4.004 7.43-7.943 7.43-7.462 0-4.035-16.27 2.979-16.27 1.633 0 .896 2.627-.193 4.196-.768 1.153 1.185 2.434 2.274.609 3.01-5.092.48-6.982-1.921-6.982-10.376 0-14.22 20.688-3.427 20.688 3.555 0 5.957-1.985 7.494-4.163-.16 1.217-.256 2.05-.288 2.21-.193 1.28 2.21 1.185 2.338.096.096-.673.448-3.523.736-5.733.16-1.248 1.697-3.554 3.427-3.554.416 0 .672.416.64.768-.064.417-.8 5.829-.768 6.63.128 2.273 1.761 2.786 3.298 2.786 1.217 0 2.21-.577 3.01-1.474.545.897 1.378 1.474 2.53 1.474 2.595 0 3.491-1.858 3.491-1.858s.32 1.858 2.562 1.858c4.548 0 5.605-7.91 5.829-10.569.256 0 1.857.096 2.145.993.257.865-.544 3.619-.608 6.47-.032 1.504.512 3.106 2.882 3.106 1.441 0 2.594-.673 3.395-1.41.544.865 1.377 1.41 2.498 1.41 1.28 0 2.146-.417 2.69-.833-.032.256-.064.48-.096.736v.033c0-.032-5.989 4.29-5.989 8.358 0 1.601.737 2.626 2.626 2.626 3.747 0 4.932-5.028 5.477-9.159.032-.192.064-.384.064-.544.576-.449 1.12-.865 1.665-1.281a92.81 92.81 0 0 1 2.402-1.826c.032.064.096.128.128.192.8 1.09 1.985 1.666 3.427 1.666 2.722 0 5.252-2.082 7.045-4.132.288.993.705 1.954 1.41 2.723.864.928 2.049 1.44 3.394 1.44 2.594 0 4.387-2.081 5.348-4.483.704.32 1.505.513 2.338.577.192.832.512 1.6 1.025 2.21.64.768 1.825 1.697 3.907 1.697 2.081 0 4.13-1.121 5.508-2.05l.192.288c.64.8 1.89 1.762 4.003 1.762 3.747 0 5.829-3.075 5.925-3.203.288-.512.128-1.249-.384-1.601ZM50.584 29.932c-.352 0-.608-.224-.608-.672 0-2.05 3.17-4.836 3.203-4.836-.385 2.754-1.506 5.508-2.595 5.508ZM64.74 10.716c.288 0 .352.225.416.353.128.448-.32 2.145-3.747 4.515.192-2.242 1.57-4.868 3.33-4.868Zm10.888-8.102c.993 0 .192 3.395-2.978 8.134.736-6.309 1.761-8.134 2.978-8.134Zm12.682 8.102c.512 0 .544.513.576.705.129.96-.768 2.69-3.715 3.683.32-2.082 1.698-4.388 3.139-4.388Zm9.608 0c.352 0 .544.257.64.577.192.672-.705 2.37-3.843 4.291.064-2.242 1.41-4.868 3.203-4.868Z" fill="#A7AAB4"/></g></symbol><symbol id="dribble"><g fill="none"><path d="M35.775 11.183c1.34 0 2.427-1.056 2.427-2.359 0-1.302-1.087-2.358-2.427-2.358S33.35 7.522 33.35 8.824c0 1.303 1.086 2.359 2.426 2.359Zm80.08 8.058c-.37-.253-.655-.294-.891.196-4.075 8.576-10.943 4.296-10.261 4.673 1.524-.677 5.53-3.8 4.925-8.11-.368-2.635-2.695-3.804-5.166-3.385-4.311.73-5.898 5.25-5.09 9.25.141.687.394 1.254.646 1.809-4.872 3.85-6.807-3.447-7.027-4.319-.009-.046 3.762-3.1 4.811-10.379 1.1-7.627-1.405-9.016-3.966-8.973-4.738.08-6.018 9.7-4.298 17.718-.144.037-.815.398-1.892.438-.776-2.37-4.088-4.448-4.955-3.647-2.17 2.003.526 5.918 2.423 6.225-1.14 6.82-8.266 5.131-6.94-3.413 2.321-4.188 4.086-10.415 3.771-14.174-.111-1.33-1.124-3.114-3.414-3.026-4.405.17-4.884 9.792-4.367 16.622-.026-.168-.271.83-2.076 1.326-.427-2.303-4.243-4.614-5.142-3.503-1.681 2.08 1.233 5.789 2.614 6.047-1.14 6.82-8.267 5.131-6.94-3.413 2.32-4.188 4.086-10.415 3.77-14.174-.11-1.33-1.123-3.114-3.414-3.026-4.404.17-4.883 9.792-4.367 16.622-.026-.17-.277.86-2.155 1.348-.063-2.987-3.893-4.357-4.813-3.404-1.64 1.7.375 5.186 2.24 6.047-1.14 6.82-8.267 5.131-6.94-3.413 2.32-4.188 4.086-10.415 3.77-14.174-.11-1.33-1.123-3.114-3.414-3.026-4.404.17-4.759 10.276-4.242 17.106-1.451 6.04-6.316 13.583-5.684-1.527.062-1.06.13-1.463-.414-1.86-.407-.308-1.334-.16-1.84-.147-.616.024-.77.374-.906.903-.318 1.366-.374 2.69-.42 4.498-.03.845-.1 1.24-.434 2.392-.335 1.152-2.244 3.259-3.289 2.907-1.45-.485-.974-4.462-.702-7.195.226-2.16-.499-3.129-2.356-3.482-1.088-.22-1.749-.186-2.881-.533-1.07-.328-1.313-2.297-3.597-1.64-1.25.358-.447 2.93-.747 4.837-1.476 9.378-4.548 9.636-5.973 5.08C20.23 6.07 15.67.048 13 .048c-2.78 0-5.96 1.86-4.614 13.77-.654-.185-.855-.285-1.572-.285-4.052 0-6.813 3.183-6.813 7.11 0 3.926 2.761 7.11 6.813 7.11 2.392 0 4.072-1.058 5.344-2.693.83 1.155 1.84 2.71 3.688 2.64 5.509-.208 7.111-11.188 7.3-11.8.589.088 1.146.255 1.69.343.906.132.972.48.951 1.366-.24 7.468 1.178 10.082 4.395 10.082 1.792 0 3.39-1.71 4.49-2.934.822 1.648 2.132 2.884 3.889 2.934 4.258.103 5.888-6.49 5.74-5.623-.117.68 1.38 5.586 5.763 5.604 5.43.022 6.44-5.78 6.56-6.752.015-.193.021-.173 0 0l-.005.06c1.724-.312 2.613-1.21 2.613-1.21s1.384 7.992 6.511 7.902c5.324-.094 6.328-5.338 6.46-6.36.017-.244.028-.215 0 0l-.002.03c2.047-.725 2.586-1.451 2.586-1.451s1.1 7.833 6.51 7.902c4.823.06 6.61-4.737 6.62-6.745.813.008 2.318-.469 2.282-.496 0 0 1.767 6.849 6.699 7.2 2.316.166 4.053-1.266 5.043-1.919 2.327 1.832 10.077 4.17 14.969-3.89.691-1.157-.794-2.524-1.054-2.702ZM6.618 25.093c-2.365 0-3.88-2.124-3.88-4.415 0-2.29 1.391-4.414 3.755-4.414 1.064 0 1.656.114 2.485.814.15.575.576 1.902.783 2.505.277.807.608 1.493.94 2.24-.475 1.916-2.034 3.27-4.083 3.27Zm5.76-7.948c-.097-.152-.077-.058-.187-.202-.433-1.146-1.268-3.703-1.365-6.607-.11-3.285.454-7.136 2.115-7.136 1.126 0 2.322 7.804-.562 13.945Zm33.29-3.422c-.267-1.95-.28-10.641 1.866-10.402 1.186.467-.751 8.668-1.866 10.402Zm15.679 0c-.267-1.95-.28-10.641 1.866-10.402 1.186.467-.751 8.668-1.866 10.402Zm15.554.12c-.267-1.95-.28-10.64 1.867-10.401 1.185.467-.752 8.668-1.867 10.402Zm17.172-11.03c1.964-.198 1.883 8.132-2.058 13.39-.508-1.9-1.287-12.738 2.058-13.39Zm8.252 17.924c-.631-3.095.998-5.127 2.678-5.35.587-.091 1.438.278 1.607.97.279 1.301-.04 3.232-3.799 5.683.005.02-.346-.613-.486-1.303Z" fill="#A7AAB4"/></g></symbol><symbol id="facebook"><g fill="none"><circle cx="21" cy="21" r="21" fill="#fff" fill-opacity=".1"/><path d="M22.504 29.597v-7.65h2.58l.384-2.994h-2.964v-1.908c0-.864.24-1.456 1.481-1.456h1.572v-2.67a20.858 20.858 0 0 0-2.303-.119c-2.28 0-3.847 1.393-3.847 3.949v2.198h-2.564v2.995h2.57v7.655h3.09Z" fill="#fff"/></g></symbol><symbol id="github"><g fill="none"><path d="M20.078 11.948h-8.76a.408.408 0 0 0-.41.405v4.241c0 .224.184.406.41.406h3.418v5.27s-.768.258-2.89.258c-2.502 0-5.998-.905-5.998-8.518 0-7.614 3.64-8.616 7.058-8.616 2.96 0 4.234.516 5.045.764.255.077.49-.174.49-.398l.978-4.097a.377.377 0 0 0-.157-.317C18.932 1.113 16.923 0 11.847 0 5.999 0 0 2.464 0 14.307s6.868 13.608 12.656 13.608c4.792 0 7.699-2.027 7.699-2.027.12-.066.133-.232.133-.308V12.353a.408.408 0 0 0-.41-.405ZM65.201 1.482a.406.406 0 0 0-.407-.407h-4.932a.408.408 0 0 0-.409.407l.002 9.44h-7.689v-9.44a.407.407 0 0 0-.407-.407h-4.932a.408.408 0 0 0-.408.407V27.04c0 .226.183.41.408.41h4.932a.408.408 0 0 0 .407-.41V16.108h7.689l-.014 10.931a.41.41 0 0 0 .408.41h4.945a.408.408 0 0 0 .407-.41V1.482ZM29.37 4.9a3.179 3.179 0 0 0-3.181-3.18 3.18 3.18 0 0 0-3.18 3.18 3.182 3.182 0 1 0 6.36 0Zm-.392 16.763V9.864a.408.408 0 0 0-.408-.407h-4.917c-.225 0-.427.23-.427.455v16.901c0 .497.312.645.717.645h4.43c.486 0 .605-.236.605-.652v-5.144ZM84.053 9.457h-4.895a.408.408 0 0 0-.407.409v12.531s-1.244.901-3.009.901c-1.764 0-2.233-.793-2.233-2.504V9.866a.408.408 0 0 0-.407-.409h-4.968a.41.41 0 0 0-.408.409v11.756c0 5.082 2.861 6.326 6.797 6.326 3.228 0 5.831-1.767 5.831-1.767s.124.931.18 1.041c.057.11.203.222.36.222l3.16-.014a.41.41 0 0 0 .409-.408L84.46 9.866a.409.409 0 0 0-.408-.409Zm11.277 13.85c-1.698-.05-2.85-.813-2.85-.813V14.4s1.137-.689 2.53-.812c1.763-.157 3.462.37 3.462 4.534 0 4.39-.767 5.257-3.142 5.186Zm1.93-14.399c-2.78 0-4.67 1.229-4.67 1.229V1.482a.407.407 0 0 0-.407-.407h-4.947a.407.407 0 0 0-.407.407V27.04c0 .226.183.41.408.41h3.432c.154 0 .272-.08.358-.218.085-.137.208-1.178.208-1.178s2.023 1.898 5.852 1.898c4.495 0 7.073-2.258 7.073-10.136 0-7.877-4.117-8.907-6.9-8.907Zm-54.085.505h-3.7l-.005-4.84c0-.183-.096-.274-.31-.274H34.12c-.197 0-.302.085-.302.272v5.001s-2.526.604-2.697.653a.406.406 0 0 0-.296.39v3.143c0 .226.183.408.408.408h2.585v7.561c0 5.616 3.979 6.168 6.663 6.168 1.227 0 2.695-.39 2.937-.479.146-.053.231-.203.231-.366l.005-3.458a.414.414 0 0 0-.41-.408c-.215 0-.767.087-1.334.087-1.818 0-2.434-.837-2.434-1.92v-7.185h3.7a.408.408 0 0 0 .409-.408V9.82a.407.407 0 0 0-.409-.408Z" fill="#A7AAB4"/></g></symbol><symbol id="icon-activity"><g fill="none"><path fill-rule="evenodd" clip-rule="evenodd" d="M17.863 1.856a1 1 0 0 1 0 2H8.171c-3.344 0-5.505 2.3-5.505 5.86v10.779c0 3.607 2.109 5.848 5.505 5.848h11.472c3.344 0 5.505-2.295 5.505-5.848v-9.388a1 1 0 0 1 2 0v9.388c0 4.694-3.016 7.848-7.505 7.848H8.172c-4.49 0-7.505-3.154-7.505-7.848V9.716c0-4.7 3.016-7.86 7.505-7.86h9.69Zm2.82 9.108a1 1 0 0 1 .179 1.403l-3.907 5.042a.994.994 0 0 1-.667.38.988.988 0 0 1-.74-.206l-3.758-2.952-3.375 4.386a1 1 0 1 1-1.585-1.219l3.99-5.188a1 1 0 0 1 1.411-.176l3.76 2.954 3.29-4.245a.995.995 0 0 1 1.402-.179ZM24.623.733a3.566 3.566 0 0 1 3.563 3.563 3.567 3.567 0 0 1-3.563 3.565 3.568 3.568 0 0 1-3.563-3.565A3.567 3.567 0 0 1 24.623.733Zm0 2a1.564 1.564 0 0 0 0 3.128 1.564 1.564 0 0 0 0-3.127Z" fill="#fff"/></g></symbol><symbol id="icon-category"><g fill="none"><path fill-rule="evenodd" clip-rule="evenodd" d="M6.333 15.403c5.426 0 5.667 1.84 5.667 5.668 0 1.918 0 3.282-.805 4.28-.927 1.152-2.614 1.388-4.862 1.388s-3.934-.236-4.86-1.387c-.806-.999-.806-2.362-.806-4.248l1-.033h-1c0-3.828.241-5.668 5.666-5.668Zm14.667 0c5.425 0 5.667 1.84 5.667 5.668 0 1.918 0 3.282-.806 4.28-.926 1.152-2.613 1.388-4.86 1.388-2.249 0-3.936-.236-4.862-1.387-.806-.999-.806-2.362-.806-4.248l1-.033h-1c0-3.828.242-5.668 5.667-5.668ZM6.608 17.404h-.275c-3.478 0-3.657.25-3.666 3.17v1.137c.007 1.162.051 2 .361 2.387.353.438 1.403.64 3.305.64 1.903 0 2.952-.204 3.306-.641.361-.45.361-1.516.361-2.994 0-3.334 0-3.683-3.392-3.699Zm14.667 0H21c-3.479 0-3.657.25-3.666 3.17v1.137c.007 1.162.051 2 .36 2.387.354.438 1.403.64 3.306.64s2.952-.204 3.305-.641c.362-.45.362-1.516.362-2.994 0-3.334 0-3.683-3.392-3.699ZM6.333.733C11.76.733 12 2.573 12 6.401c0 1.918 0 3.282-.805 4.28-.927 1.152-2.614 1.388-4.862 1.388s-3.934-.236-4.86-1.387C.666 9.683.666 8.32.666 6.434l1-.033h-1C.667 2.573.908.733 6.333.733ZM21 .733c5.425 0 5.667 1.84 5.667 5.668 0 1.918 0 3.282-.806 4.28-.926 1.152-2.613 1.388-4.86 1.388-2.249 0-3.936-.236-4.862-1.387-.806-.999-.806-2.362-.806-4.248l1-.033h-1c0-3.828.242-5.668 5.667-5.668ZM6.608 2.734h-.275c-3.478 0-3.657.25-3.666 3.17V7.04c.007 1.162.051 2 .361 2.387.353.438 1.403.64 3.305.64 1.903 0 2.952-.204 3.306-.641C10 8.977 10 7.911 10 6.433c0-3.334 0-3.683-3.392-3.699Zm14.667 0H21c-3.479 0-3.657.25-3.666 3.17V7.04c.007 1.162.051 2 .36 2.387.354.438 1.403.64 3.306.64s2.952-.204 3.305-.641c.362-.45.362-1.516.362-2.994 0-3.334 0-3.683-3.392-3.699Z" fill="#FE390C"/></g></symbol><symbol id="icon-chart"><g fill="none"><path fill-rule="evenodd" clip-rule="evenodd" d="M20.915.4C25.75.4 29 3.795 29 8.848v11.776c0 5.053-3.25 8.449-8.085 8.449H8.419c-4.836 0-8.086-3.396-8.086-8.449V8.848C.333 3.795 3.583.4 8.42.4h12.496Zm0 2H8.419c-3.696 0-6.086 2.53-6.086 6.448v11.776c0 3.918 2.39 6.448 6.086 6.448h12.496c3.697 0 6.085-2.53 6.085-6.448V8.848C27 4.93 24.612 2.4 20.915 2.4ZM8.495 11.34a1 1 0 0 1 1 1v9.149a1 1 0 0 1-2 0v-9.149a1 1 0 0 1 1-1Zm6.223-4.38a1 1 0 0 1 1 1v13.527a1 1 0 0 1-2 0V7.96a1 1 0 0 1 1-1Zm6.12 9.214a1 1 0 0 1 1 1v4.313a1 1 0 0 1-2 0v-4.313a1 1 0 0 1 1-1Z" fill="#FE390C"/></g></symbol><symbol id="icon-download"><g fill="none"><path d="M14 11v3H2v-3H0v3c0 1.1.9 2 2 2h12c1.1 0 2-.9 2-2v-3h-2Zm-1-4-1.41-1.41L9 8.17V0H7v8.17L4.41 5.59 3 7l5 5 5-5Z" fill="#FE390C"/></g></symbol><symbol id="icon-edit"><g fill="none"><path fill-rule="evenodd" clip-rule="evenodd" d="M13.323.782a1 1 0 0 1 0 2H8.337c-3.445 0-5.67 2.361-5.67 6.014v11.088c0 3.652 2.225 6.013 5.67 6.013h11.766c3.445 0 5.672-2.36 5.672-6.013v-5.372a1 1 0 0 1 2 0v5.372c0 4.793-3.084 8.013-7.672 8.013H8.337c-4.588 0-7.67-3.22-7.67-8.013V8.796c0-4.793 3.082-8.014 7.67-8.014h4.986Zm11.613 1.172 1.622 1.623c.79.79 1.226 1.839 1.224 2.956a4.145 4.145 0 0 1-1.224 2.954L16.546 19.502a3.87 3.87 0 0 1-2.753 1.14H8.798a1 1 0 0 1-1-1.026l.126-5.04a3.884 3.884 0 0 1 1.138-2.656h.002l9.964-9.966a4.186 4.186 0 0 1 5.908 0Zm-6.73 3.649-7.73 7.732a1.884 1.884 0 0 0-.552 1.29l-.1 4.017h3.969a1.88 1.88 0 0 0 1.34-.555l7.777-7.78-4.703-4.704Zm2.235-2.234-.82.819 4.702 4.705.822-.82c.41-.411.637-.958.637-1.54 0-.582-.226-1.13-.637-1.541l-1.623-1.623a2.186 2.186 0 0 0-3.081 0Z" fill="#FE390C"/></g></symbol><symbol id="icon-email"><g fill="none"><path d="M14.94.715A5.057 5.057 0 0 1 20 5.765v7.9c0 2.79-2.27 5.05-5.06 5.05H5.06A5.057 5.057 0 0 1 0 13.665v-7.9A5.05 5.05 0 0 1 5.06.715h9.88Zm1.13 5.2a.76.76 0 0 0-.56.2L11 9.715a1.566 1.566 0 0 1-2 0l-4.5-3.6a.76.76 0 0 0-1 .07c-.27.27-.3.7-.07 1l.13.13 4.55 3.55a3.143 3.143 0 0 0 3.91 0l4.51-3.61.08-.08a.773.773 0 0 0-.01-1 .84.84 0 0 0-.53-.26Z" fill="#FE390C"/></g></symbol><symbol id="icon-location"><g fill="none"><path d="M9 .715c-4.963 0-9 3.927-9 8.753 0 5.562 3.71 8.917 6.172 11.138a4.119 4.119 0 0 0 2.834 1.11 4.074 4.074 0 0 0 2.815-1.103C14.28 18.393 18 15.036 18 9.468 18 4.642 13.963.715 9 .715ZM9 12.97c-1.985 0-3.6-1.57-3.6-3.5 0-1.931 1.615-3.502 3.6-3.502s3.6 1.57 3.6 3.501c0 1.93-1.615 3.501-3.6 3.501Z" fill="#FE390C"/></g></symbol><symbol id="icon-phone"><g fill="none"><path fill-rule="evenodd" clip-rule="evenodd" d="M9.532 10.188c3.989 3.987 4.894-.626 7.434 1.912 2.448 2.448 3.856 2.938.753 6.04-.388.312-2.858 4.07-11.534-4.605C-2.494 4.859 1.262 2.388 1.574 1.999c3.11-3.11 3.592-1.695 6.04.753 2.54 2.54-2.071 3.447 1.918 7.436Z" fill="#FE390C"/></g></symbol><symbol id="im"><g fill="none"><path d="M5.861.41C3.571 1.369 1.054 4.075.26 7.475c-1.007 4.306 3.182 6.127 3.526 5.53.404-.701-.75-.938-.989-3.173-.307-2.885 1.035-6.11 2.723-7.525.314-.262.3.103.3.78 0 1.21-.068 12.074-.068 14.34 0 3.068-.126 4.037-.354 4.994-.23.97-.601 1.626-.32 1.878.313.283 1.653-.389 2.43-1.472.93-1.298 1.255-2.858 1.313-4.55.07-2.042.068-5.282.07-7.13.004-1.694.03-6.656-.029-9.639-.014-.732-2.043-1.5-3-1.098ZM87.164 14.767c-.074 1.595-.427 2.841-.865 3.72-.849 1.703-2.609 2.231-3.356-.216-.407-1.333-.426-3.561-.133-5.423.298-1.896 1.13-3.328 2.508-3.199 1.36.128 1.995 1.88 1.846 5.118Zm-22.915 9.895c-.019 2.65-.436 4.973-1.33 5.648-1.269.957-2.974.239-2.62-1.695.312-1.71 1.79-3.458 3.953-5.593 0 0 .005.486-.003 1.64Zm-.347-9.91c-.077 1.452-.454 2.911-.865 3.736-.848 1.702-2.62 2.234-3.355-.217-.503-1.674-.382-3.841-.134-5.207.323-1.771 1.104-3.415 2.508-3.415 1.366 0 2.039 1.498 1.846 5.102Zm-13.274-.023c-.083 1.538-.383 2.824-.865 3.759-.871 1.69-2.596 2.226-3.356-.217-.548-1.761-.361-4.163-.133-5.46.338-1.926 1.185-3.291 2.508-3.162 1.359.133 2.02 1.88 1.846 5.08Zm60.833 1.797c-.332 0-.483.343-.609.919-.435 2.004-.892 2.456-1.481 2.456-.659 0-1.251-.992-1.403-2.979-.119-1.561-.1-4.437.053-7.297.031-.587-.131-1.169-1.707-1.741-.679-.247-1.664-.61-2.155.576-1.387 3.347-1.93 6.005-2.058 7.084-.006.056-.075.068-.087-.063-.081-.864-.263-2.436-.286-5.737-.004-.644-.14-1.193-.851-1.641-.462-.292-1.862-.807-2.367-.194-.437.501-.943 1.85-1.469 3.449-.427 1.3-.725 2.179-.725 2.179s.006-3.507.01-4.837c.003-.502-.341-.669-.445-.7-.467-.135-1.388-.361-1.778-.361-.482 0-.6.27-.6.662 0 .051-.076 4.616-.076 7.809v.45c-.266 1.468-1.13 3.46-2.071 3.46-.942 0-1.386-.833-1.386-4.639 0-2.22.067-3.186.1-4.791.019-.925.055-1.635.053-1.796-.007-.495-.861-.744-1.259-.836a3.73 3.73 0 0 0-1.018-.113c-.383.022-.655.273-.655.62l.002.538c-.494-.777-1.29-1.317-1.818-1.474-1.425-.423-2.911-.048-4.032 1.521-.892 1.247-1.429 2.659-1.64 4.687-.155 1.483-.104 2.987.17 4.26-.332 1.434-.948 2.022-1.623 2.022-.98 0-1.69-1.599-1.607-4.364.054-1.82.418-3.096.816-4.942.17-.788.032-1.2-.314-1.595-.317-.362-.992-.547-1.964-.32-.691.163-1.68.337-2.585.471 0 0 .054-.217.1-.602.234-2.014-1.954-1.85-2.653-1.207-.417.384-.7.837-.808 1.652-.17 1.292.883 1.902.883 1.902-.346 1.583-1.193 3.652-2.069 5.147-.469.801-.827 1.395-1.29 2.026l-.004-.704c-.01-3.329.034-5.949.053-6.893.02-.925.056-1.616.054-1.777-.005-.362-.216-.498-.655-.671a4.65 4.65 0 0 0-1.324-.296c-.6-.047-.963.272-.953.649.002.071.002.508.002.508-.495-.777-1.29-1.317-1.819-1.474-1.424-.423-2.91-.048-4.032 1.521-.89 1.247-1.474 2.996-1.64 4.672-.154 1.562-.125 2.889.085 4.007-.227 1.12-.878 2.29-1.614 2.29-.942 0-1.478-.832-1.478-4.638 0-2.22.067-3.186.1-4.791.019-.925.056-1.635.053-1.796-.006-.495-.861-.744-1.259-.836-.416-.096-.775-.131-1.05-.11-.365.026-.62.352-.62.595v.56c-.495-.777-1.29-1.317-1.819-1.474-1.425-.423-2.903-.042-4.032 1.521-.737 1.019-1.333 2.149-1.64 4.65a15.66 15.66 0 0 0-.123 2.032c-.293 1.796-1.59 3.866-2.652 3.866-.621 0-1.212-1.204-1.212-3.771 0-3.42.211-8.288.247-8.757 0 0 1.34-.023 1.6-.026.67-.007 1.275.009 2.166-.037.447-.022.877-1.626.416-1.824-.21-.09-1.686-.169-2.272-.181-.492-.011-1.863-.113-1.863-.113s.123-3.231.152-3.573c.024-.284-.344-.43-.555-.52-.514-.217-.973-.32-1.517-.433-.752-.155-1.093-.003-1.16.632-.1.963-.152 3.784-.152 3.784-.552 0-2.437-.108-2.99-.108-.512 0-1.066 2.206-.357 2.233.816.032 2.238.06 3.18.088 0 0-.042 4.948-.042 6.476l.002.471c-.518 2.704-2.346 4.164-2.346 4.164.393-1.789-.409-3.132-1.853-4.269a137.984 137.984 0 0 0-2.756-2.081s.68-.67 1.283-2.02c.428-.956.447-2.05-.603-2.291-1.734-.399-3.164.875-3.59 2.234-.33 1.054-.155 1.835.493 2.647.047.06.098.12.151.181-.391.755-.93 1.77-1.385 2.558-1.264 2.187-2.219 3.917-2.94 3.917-.577 0-.57-1.756-.57-3.4 0-1.418.105-3.55.189-5.756.027-.73-.338-1.146-.95-1.523-.371-.228-1.164-.678-1.624-.678-.687 0-2.671.093-4.546 5.516-.236.683-.7 1.929-.7 1.929l.04-6.521c0-.153-.082-.3-.268-.402-.316-.171-1.16-.522-1.91-.522-.357 0-.536.166-.536.498L11.55 18.32c0 .776.02 1.68.097 2.075.076.396.2.718.353.91.153.191.33.337.622.397.271.056 1.758.247 1.835-.32.093-.682.097-1.418.877-4.166 1.216-4.277 2.8-6.363 3.546-7.104.13-.13.279-.138.272.074-.032.938-.144 3.281-.22 5.272-.201 5.327.768 6.314 2.153 6.314 1.06 0 2.553-1.053 4.154-3.718.998-1.66 1.967-3.289 2.663-4.462.486.45 1.03.932 1.574 1.449 1.265 1.2 1.68 2.34 1.404 3.422-.21.828-1.004 1.68-2.416.851-.411-.241-.587-.428-1-.7-.223-.147-.563-.19-.766-.037-.529.398-.831.905-1.004 1.533-.168.61.444.934 1.078 1.216.546.243 1.72.464 2.468.489 2.916.097 5.252-1.408 6.878-5.292.292 3.354 1.53 5.252 3.683 5.252 1.44 0 2.882-1.86 3.513-3.69.181.746.45 1.395.795 1.943 1.659 2.628 4.877 2.063 6.493-.169.5-.69.576-.937.576-.937.235 2.107 1.932 2.843 2.904 2.843 1.088 0 2.211-.514 2.999-2.287.092.192.193.376.303.55 1.658 2.628 4.876 2.063 6.492-.169.077-.105.143-.2.2-.285l.048 1.384-1.488 1.365c-2.494 2.286-4.39 4.02-4.528 6.039-.178 2.575 1.909 3.532 3.49 3.657 1.676.133 3.114-.794 3.997-2.09.777-1.142 1.285-3.6 1.248-6.026-.015-.972-.04-2.207-.059-3.532a28.31 28.31 0 0 0 2.77-3.806c.99-1.639 2.051-3.84 2.594-5.553 0 0 .922.007 1.905-.057.315-.02.405.044.347.274-.07.279-1.242 4.801-.172 7.814.732 2.062 2.383 2.726 3.362 2.726 1.146 0 2.242-.866 2.83-2.15.07.143.144.281.225.41 1.659 2.627 4.865 2.058 6.493-.17.367-.503.576-.937.576-.937.349 2.18 2.045 2.854 3.016 2.854 1.012 0 1.972-.415 2.751-2.258.033.812.084 1.475.165 1.684.05.128.337.289.546.367.926.343 1.87.18 2.22.11.241-.049.43-.243.456-.744.067-1.317.026-3.528.425-5.171.67-2.758 1.294-3.828 1.59-4.358.166-.297.353-.345.36-.031.014.635.046 2.501.305 5.008.19 1.844.445 2.934.641 3.28.558.986 1.248 1.032 1.809 1.032.357 0 1.104-.098 1.038-.726-.033-.306.024-2.197.684-4.914.432-1.775 1.15-3.378 1.41-3.964.095-.216.14-.046.138-.013-.054 1.222-.177 5.22.321 7.405.675 2.962 2.627 3.293 3.307 3.293 1.452 0 2.64-1.105 3.04-4.011.097-.7-.046-1.24-.474-1.24Z" fill="#A7AAB4"/></g></symbol><symbol id="instagram"><g fill="none"><circle cx="21" cy="21" r="21" fill="#fff" fill-opacity=".1"/><path d="M21.199 16.885a4.316 4.316 0 1 0 0 8.632 4.316 4.316 0 0 0 0-8.632Zm0 7.119a2.804 2.804 0 1 1 0-5.607 2.804 2.804 0 0 1 0 5.607ZM25.686 17.733a1.006 1.006 0 1 0 0-2.013 1.006 1.006 0 0 0 0 2.013Z" fill="#fff"/><path d="M29.164 15.704a4.3 4.3 0 0 0-2.457-2.457 6.166 6.166 0 0 0-2.04-.392c-.9-.039-1.184-.05-3.463-.05-2.28 0-2.572 0-3.463.05a6.119 6.119 0 0 0-2.038.392 4.292 4.292 0 0 0-2.458 2.457 6.145 6.145 0 0 0-.39 2.04c-.041.898-.053 1.183-.053 3.463 0 2.279 0 2.57.052 3.462.014.698.146 1.387.391 2.041a4.302 4.302 0 0 0 2.459 2.457c.65.255 1.34.397 2.039.42.899.04 1.183.051 3.463.051 2.279 0 2.57 0 3.462-.05a6.174 6.174 0 0 0 2.04-.392 4.305 4.305 0 0 0 2.458-2.458 6.147 6.147 0 0 0 .391-2.04c.04-.898.052-1.182.052-3.462 0-2.28 0-2.57-.052-3.463a6.142 6.142 0 0 0-.393-2.07ZM28.027 24.6a4.705 4.705 0 0 1-.29 1.576 2.786 2.786 0 0 1-1.598 1.597c-.499.185-1.026.283-1.558.29-.887.041-1.137.051-3.41.051-2.276 0-2.509 0-3.412-.051a4.63 4.63 0 0 1-1.558-.29 2.786 2.786 0 0 1-1.604-1.597 4.74 4.74 0 0 1-.29-1.558c-.04-.887-.05-1.137-.05-3.41 0-2.275 0-2.507.05-3.412.005-.537.104-1.07.29-1.574a2.787 2.787 0 0 1 1.604-1.598 4.675 4.675 0 0 1 1.558-.29c.887-.04 1.137-.052 3.411-.052 2.275 0 2.508 0 3.41.052.533.006 1.06.104 1.56.29a2.79 2.79 0 0 1 1.597 1.598c.184.499.282 1.026.29 1.557.04.888.05 1.137.05 3.412 0 2.273 0 2.518-.04 3.41h-.01Z" fill="#fff"/></g></symbol><symbol id="linkedin"><g fill="none"><circle cx="21" cy="21" r="21" fill="#fff" fill-opacity=".1"/><path d="M14.65 16.717a2.042 2.042 0 1 0 0-4.084 2.042 2.042 0 0 0 0 4.084ZM18.621 18.265v11.33h3.518v-5.603c0-1.479.278-2.91 2.111-2.91 1.808 0 1.83 1.69 1.83 3.003v5.51h3.52v-6.213c0-3.052-.657-5.397-4.224-5.397-1.713 0-2.86.94-3.33 1.83h-.048v-1.55h-3.377Zm-5.732 0h3.523v11.33h-3.523v-11.33Z" fill="#fff"/></g></symbol><symbol id="ln"><g fill="none"><g clip-path="url(#a)"><path d="m28.414 10.543 3.973 4.886H29.25l-3.536-4.488v4.488h-2.571V2.57h2.571v7.56L28.98 6.43h3.279l-3.845 4.114ZM18.13 6.17a3.484 3.484 0 0 0-2.842 1.543V6.43h-2.43v9h2.572v-4.205a2.237 2.237 0 0 1 2.134-2.481c1.491 0 1.723 1.466 1.723 2.481v4.205h2.571v-4.77c0-2.829-.938-4.488-3.677-4.488h-.051Zm23.014 4.963c.01.189.01.378 0 .566h-6.75v.09a2.301 2.301 0 0 0 2.353 1.839 3.227 3.227 0 0 0 2.365-.888l1.71 1.286a5.54 5.54 0 0 1-4.178 1.659 4.487 4.487 0 0 1-4.757-4.822 4.603 4.603 0 0 1 4.834-4.693c2.417 0 4.423 1.71 4.423 4.963ZM38.75 10.03a1.877 1.877 0 0 0-2.044-1.8 2.108 2.108 0 0 0-2.314 1.8h4.358ZM2.571 2.57H0V15.43h7.714v-2.572H2.571V2.571Zm46.286 0h2.572V15.43h-2.43v-.9c-.626.77-1.58 1.2-2.572 1.157a4.384 4.384 0 0 1-4.256-4.757 4.32 4.32 0 0 1 4.243-4.758 3.368 3.368 0 0 1 2.443.9v-4.5Zm.193 8.358a2.096 2.096 0 0 0-2.083-2.379 2.263 2.263 0 0 0-2.096 2.379 2.263 2.263 0 0 0 2.096 2.378 2.096 2.096 0 0 0 2.083-2.378ZM10.286 2.314a1.633 1.633 0 0 0-1.607 1.543 1.607 1.607 0 1 0 3.214 0 1.633 1.633 0 0 0-1.607-1.543ZM9 15.43h2.571v-9H9v9ZM72 1.286v15.428c0 .71-.576 1.286-1.286 1.286H55.286c-.71 0-1.286-.576-1.286-1.286V1.286C54 .576 54.576 0 55.286 0h15.428C71.424 0 72 .576 72 1.286ZM59.143 6.429H56.57v9h2.572v-9Zm.321-2.572a1.607 1.607 0 1 0-3.214 0 1.607 1.607 0 0 0 3.214 0Zm9.965 6.802c0-2.829-.939-4.488-3.678-4.488a3.484 3.484 0 0 0-2.892 1.543V6.43h-2.43v9H63v-4.205a2.237 2.237 0 0 1 2.134-2.481c1.492 0 1.723 1.466 1.723 2.481v4.205h2.572v-4.77Z" fill="#A7AAB4"/></g></g></symbol><symbol id="logo"><g fill="none"><path d="M.066 25V.937h9.625v4.69H4.906v3.828h4.54v4.635h-4.54V25H.066Z" fill="#fff"/><path d="M17.412 25.219c-1.923 0-3.395-.579-4.416-1.737-1.011-1.166-1.517-2.848-1.517-5.044V7.008c0-2.06.5-3.623 1.504-4.69 1.011-1.066 2.488-1.6 4.43-1.6 1.94 0 3.413.534 4.415 1.6 1.012 1.067 1.518 2.63 1.518 4.69v11.43c0 2.196-.51 3.878-1.532 5.044-1.011 1.158-2.479 1.737-4.402 1.737Zm.041-4.43c.73 0 1.094-.706 1.094-2.12V6.927c0-1.185-.355-1.778-1.067-1.778-.802 0-1.203.607-1.203 1.819v11.73c0 .748.092 1.285.274 1.614.182.319.483.478.902.478Z" fill="#fff" fill-opacity=".52"/><path d="m25.01 25 2.584-12.756-2.05-11.32h4.702l1.244 8.271L32.598.924h4.717l-2.051 11.32L37.834 25h-4.867l-1.518-9.406L29.891 25H25.01Z" fill="url(#a)"/></g></symbol><symbol id="mapbox"><g fill="none"><path d="M16.308.212c8.932 0 16.173 7.163 16.173 16 0 8.835-7.24 15.998-16.173 15.998C7.375 32.21.135 25.047.135 16.211S7.375.212 16.308.212Zm73.606 8.765c3.802 0 6.876 3.239 6.876 7.234s-3.074 7.235-6.876 7.235a6.638 6.638 0 0 1-4.696-1.944l-.089-.09v6.857l-.002.038a.403.403 0 0 1-.36.356l-.038.002h-2.438l-.038-.002a.403.403 0 0 1-.36-.356l-.002-.038V9.732l.002-.037a.403.403 0 0 1 .36-.357l.038-.002h2.438l.038.002c.189.019.342.17.36.357l.002.037v1.278a6.671 6.671 0 0 1 4.785-2.033Zm-77.572-.36C6.793 14.105 8.576 23.86 8.576 23.86s9.878 1.745 15.409-3.726c3.074-3.041 2.965-8.098-.255-11.265-3.22-3.168-8.314-3.294-11.388-.252Zm89.87-4.86.038.002c.188.019.342.17.36.357l.002.037v6.857a6.672 6.672 0 0 1 4.785-2.033c3.802 0 6.876 3.239 6.876 7.234s-3.074 7.235-6.876 7.235a6.64 6.64 0 0 1-4.697-1.944l-.088-.09v1.278l-.002.038a.403.403 0 0 1-.36.356l-.038.002h-2.438a.403.403 0 0 1-.398-.358l-.002-.038V4.153c0-.203.161-.374.362-.394l.038-.002h2.438Zm21.03 5.22c4.112 0 7.441 3.239 7.441 7.234s-3.329 7.235-7.441 7.235c-4.111 0-7.44-3.24-7.44-7.235s3.329-7.234 7.44-7.234Zm-53.121 0c1.776 0 3.45.703 4.696 1.944l.088.09V9.731l.002-.037a.403.403 0 0 1 .36-.357l.038-.002h2.438c.206 0 .379.16.399.359l.001.037V22.69l-.001.038a.403.403 0 0 1-.36.356l-.039.002h-2.438l-.038-.002a.403.403 0 0 1-.36-.356l-.002-.038v-1.278a6.672 6.672 0 0 1-4.784 2.034c-3.803 0-6.877-3.24-6.877-7.235s3.074-7.234 6.877-7.234Zm73.333.341a.37.37 0 0 1 .2.054.375.375 0 0 1 .128.473l-.019.031-4.184 6.3 4.22 6.352a.467.467 0 0 1 .055.216c0 .186-.144.34-.327.358l-.037.002h-2.783a.615.615 0 0 1-.501-.248l-.027-.04-2.51-4.14-2.511 4.14a.608.608 0 0 1-.477.286l-.05.002h-2.82a.368.368 0 0 1-.2-.054.373.373 0 0 1-.128-.473l.018-.031 4.221-6.353-4.184-6.299a.355.355 0 0 1-.055-.198c0-.185.144-.34.327-.358l.037-.002h2.82c.201 0 .387.092.501.248l.027.04 2.455 4.068 2.456-4.086a.609.609 0 0 1 .478-.286l.05-.002h2.82Zm-87.505-.341c2.788 0 5.06 2.093 5.111 4.715v.09l.019 8.908-.002.038a.403.403 0 0 1-.36.356l-.038.002h-2.456a.403.403 0 0 1-.398-.358l-.002-.038V14.77c0-1.673-1.292-2.951-2.838-2.951-1.376 0-2.506 1.18-2.753 2.723l-.013.084.019 8.063-.002.038a.403.403 0 0 1-.36.356l-.039.002h-2.456a.403.403 0 0 1-.398-.358l-.002-.038V14.77c0-1.673-1.291-2.951-2.838-2.951-1.467 0-2.67 1.34-2.796 3.027l-.005.086v7.757l-.002.038a.403.403 0 0 1-.36.356l-.039.002h-2.438l-.038-.002a.403.403 0 0 1-.36-.356l-.002-.038V9.732l.002-.037a.403.403 0 0 1 .36-.357l.038-.002h2.438l.038.002c.189.019.342.17.36.357l.003.037v1.152a4.687 4.687 0 0 1 3.765-1.907c1.91-.018 3.693 1.025 4.585 2.699a4.765 4.765 0 0 1 4.257-2.7Zm50.884 2.897c-2.281 0-4.119 1.859-4.2 4.192l-.003.091v.108c.018 2.376 1.892 4.283 4.203 4.283 2.31 0 4.202-1.943 4.202-4.337 0-2.393-1.874-4.337-4.202-4.337Zm16.391 0c-2.31 0-4.202 1.944-4.202 4.337 0 2.394 1.873 4.337 4.202 4.337 2.31 0 4.202-1.943 4.202-4.337 0-2.393-1.892-4.337-4.202-4.337Zm-52.54 0c-2.31 0-4.202 1.944-4.202 4.337 0 2.394 1.874 4.337 4.203 4.337 2.28 0 4.136-1.86 4.2-4.193l.002-.09v-.108c-.018-2.375-1.892-4.283-4.202-4.283Zm18.666 0c-2.28 0-4.118 1.859-4.2 4.192l-.003.091v.108c.019 2.376 1.892 4.283 4.203 4.283 2.329 0 4.202-1.943 4.202-4.337 0-2.393-1.874-4.337-4.202-4.337ZM18.163 9.588l1.583 3.222 3.257 1.566-3.257 1.565-1.583 3.222-1.582-3.222-3.257-1.566 3.257-1.565 1.582-3.222Z" fill="#A7AAB4"/></g></symbol><symbol id="quote"><g fill="none"><path d="M1.667 14.252h4l2.666-5.334v-8h-8v8h4l-2.666 5.334Zm13.333 0h4l2.667-5.334v-8h-8v8h4L15 14.252Z" fill="#FE390C"/></g></symbol><symbol id="slack"><g fill="none"><path d="m36.175 21.944 1.412-3.195c1.526 1.11 3.554 1.687 5.559 1.687 1.48 0 2.414-.555 2.414-1.398-.023-2.352-8.861-.51-8.93-6.413-.022-2.995 2.711-5.303 6.584-5.303 2.3 0 4.602.555 6.242 1.82l-1.322 3.261c-1.503-.931-3.371-1.597-5.148-1.597-1.207 0-2.005.555-2.005 1.264.023 2.308 8.93 1.043 9.021 6.68 0 3.061-2.665 5.214-6.492 5.214-2.802 0-5.376-.644-7.335-2.02Zm54.194-4.348 3.895 2.107c-1.458 2.552-4.237 4.26-7.449 4.26-4.715 0-8.542-3.727-8.542-8.32s3.827-8.32 8.542-8.32c3.19 0 5.991 1.73 7.45 4.26l-3.896 2.107a4.118 4.118 0 0 0-3.554-2.019c-2.255 0-4.078 1.775-4.078 3.972s1.823 3.972 4.078 3.972c1.526 0 2.848-.821 3.554-2.02ZM51.962.422h4.874v23.23h-4.874V.423Zm44.216 0h4.875v13.646l5.513-6.413h5.968l-6.811 7.722 7.358 8.276h-6.242l-5.786-6.967v6.967h-4.875V.422ZM71.325 17.64v-3.928c-.707-1.153-2.164-2.04-3.805-2.04-2.255 0-4.077 1.774-4.077 3.97 0 2.198 1.822 3.973 4.077 3.973 1.64 0 3.099-.843 3.805-1.975Zm0-9.985H76.2v15.976h-4.875v-1.886c-.798 1.309-2.78 2.219-4.853 2.219-4.282 0-7.654-3.728-7.654-8.343 0-4.616 3.372-8.299 7.654-8.299 2.074 0 4.055.91 4.853 2.219V7.655ZM6.037 17.618c0 1.62-1.344 2.929-3.007 2.929s-3.007-1.31-3.007-2.93S1.367 14.69 3.03 14.69h3.007v2.929Zm1.503 0c0-1.62 1.344-2.93 3.007-2.93s3.007 1.31 3.007 2.93v7.322c0 1.62-1.344 2.929-3.007 2.929s-3.007-1.31-3.007-2.93v-7.321ZM10.547 5.858c-1.663 0-3.007-1.31-3.007-2.93C7.54 1.31 8.884 0 10.547 0s3.007 1.31 3.007 2.929v2.929h-3.007Zm0 1.486c1.663 0 3.007 1.31 3.007 2.93 0 1.619-1.344 2.928-3.007 2.928h-7.54C1.344 13.202 0 11.893 0 10.273c0-1.62 1.344-2.929 3.007-2.929h7.54ZM22.598 10.273c0-1.62 1.344-2.929 3.007-2.929s3.007 1.31 3.007 2.93c0 1.619-1.344 2.928-3.007 2.928h-3.007v-2.929Zm-1.504 0c0 1.62-1.344 2.93-3.007 2.93s-3.006-1.31-3.006-2.93V2.93C15.08 1.309 16.424 0 18.087 0c1.663 0 3.007 1.31 3.007 2.929v7.344ZM18.087 22.011c1.663 0 3.007 1.31 3.007 2.929 0 1.62-1.344 2.929-3.007 2.929s-3.006-1.31-3.006-2.93v-2.928h3.006Zm0-1.464c-1.663 0-3.006-1.31-3.006-2.93s1.343-2.928 3.006-2.928h7.54c1.664 0 3.008 1.309 3.008 2.929 0 1.62-1.344 2.929-3.007 2.929h-7.54Z" fill="#A7AAB4"/></g></symbol><symbol id="twiio"><g fill="none"><path d="M13.99 0c7.721 0 13.988 6.233 13.988 13.912 0 7.68-6.267 13.913-13.989 13.913S0 21.592 0 13.913C0 6.232 6.267 0 13.99 0Zm0 3.673c-5.708 0-10.297 4.563-10.297 10.24 0 5.676 4.589 10.24 10.296 10.24 5.708 0 10.296-4.564 10.296-10.24 0-5.677-4.588-10.24-10.296-10.24Zm71.904 5.732c4.14 0 7.106 3.005 7.106 6.567v.055c0 3.562-2.966 6.623-7.162 6.623-4.141 0-7.107-3.005-7.107-6.567v-.056c0-3.561 2.966-6.622 7.163-6.622Zm-48.18-3.896c.169-.055.337.112.337.223v4.007h7.442c.168 0 .28.111.335.222l.616 2.282.56 2.282.056.111.055-.223 1.4-4.619c.055-.11.223-.222.335-.222h3.693c.168 0 .28.111.336.222l1.455 4.953.056-.222 1.23-4.62c.057-.11.225-.222.337-.222h9.512c.112 0 .224.111.224.278v12.132c0 .111-.112.223-.224.223h-4.756c-.112 0-.224-.112-.224-.223V10.407l-3.581 11.686c-.056.111-.224.223-.336.223h-3.917a.378.378 0 0 1-.336-.223l-.783-2.448-.84-2.672-1.678 5.176c-.056.111-.224.222-.336.222h-3.917a.378.378 0 0 1-.335-.222l-3.526-11.631v3.005c0 .111-.112.223-.224.223h-2.685v3.172c0 .946.447 1.28 1.287 1.28.447 0 .839-.056 1.343-.279.111 0 .28.056.28.223v3.673c-.84.445-2.071.723-3.358.723-3.078 0-4.756-1.447-4.756-4.507V13.69H31.56c-.112 0-.224-.111-.224-.223V9.906c0-.112.112-.223.224-.223h1.23V7.18c0-.111.057-.167.224-.223l4.7-1.447Zm34.023-.055c.111 0 .223.111.223.222v16.417c0 .111-.112.223-.223.223H66.98c-.112 0-.224-.112-.224-.223V5.676c0-.111.112-.222.224-.222h4.757Zm6.267 4.23c.111 0 .223.11.223.277v12.132c0 .111-.112.223-.223.223h-4.757c-.112 0-.224-.112-.224-.223V9.906c0-.112.112-.223.224-.223h4.757Zm-60.546 4.785a2.902 2.902 0 0 1 2.91 2.894 2.902 2.902 0 0 1-2.91 2.894 2.902 2.902 0 0 1-2.91-2.894 2.902 2.902 0 0 1 2.91-2.894Zm-6.938 0a2.902 2.902 0 0 1 2.91 2.894 2.902 2.902 0 0 1-2.91 2.894 2.902 2.902 0 0 1-2.91-2.894 2.902 2.902 0 0 1 2.91-2.894Zm75.318-.723c-1.175 0-2.015.946-2.015 2.17v.056c0 1.224.895 2.226 2.07 2.226 1.176 0 2.015-.947 2.015-2.17 0-1.28-.895-2.282-2.07-2.282Zm-68.38-6.178a2.902 2.902 0 0 1 2.91 2.894 2.902 2.902 0 0 1-2.91 2.894 2.902 2.902 0 0 1-2.91-2.894 2.902 2.902 0 0 1 2.91-2.894Zm-6.938 0a2.902 2.902 0 0 1 2.91 2.894 2.902 2.902 0 0 1-2.91 2.894 2.902 2.902 0 0 1-2.91-2.894 2.902 2.902 0 0 1 2.91-2.894Zm55.005-2.114c.168 0 .28.111.224.222v2.838c0 .112-.112.223-.224.223h-4.924c-.112 0-.224-.111-.224-.223V5.676c0-.111.112-.222.224-.222h4.924Zm12.535 0c.167 0 .28.111.223.222v2.838c0 .112-.112.223-.223.223h-4.925c-.112 0-.223-.111-.223-.223V5.676c0-.111.111-.222.223-.222h4.925Z" fill="#A7AAB4"/></g></symbol><symbol id="udemy"><g fill="none"><g clip-path="url(#a)" fill="#A7AAB4"><path d="M104.125 27.58h3.22l5.571-14.118h-3.187l-2.303 7.032L105 13.462h-3.557l4.236 10.198-1.554 3.92ZM88.143 16.815v7.237h-3.249V13.462h2.283l.678.925c.884-.74 1.83-1.172 2.92-1.172 1.46 0 2.57.432 3.248 1.502.987-.905 2.036-1.502 3.373-1.502 2.508 0 3.968 1.296 3.968 4.812v6.024h-3.249v-5.654c0-1.624-.658-2.098-1.706-2.098-.617 0-1.13.165-1.707.535.042.37.062.76.062 1.193v6.024h-3.249v-5.654c0-1.624-.658-2.098-1.727-2.098-.596 0-1.09.145-1.645.515Zm-11.33.904h4.174c-.226-1.377-.967-2.035-2.077-2.035-.946 0-1.85.555-2.097 2.035Zm2.323 6.539c-3.125 0-5.634-1.542-5.634-5.614 0-3.804 2.427-5.448 5.223-5.448 3.372 0 4.873 2.364 4.873 6.086h-6.806c.227 1.83 1.358 2.365 2.859 2.365 1.451 0 2.587-.359 3.466-.95l-.441 2.577c-.839.648-1.846.984-3.54.984ZM67.04 21.522c.74 0 1.295-.123 1.87-.555v-4.606c-.513-.309-1.027-.452-1.767-.452-1.583 0-2.488 1.069-2.488 2.858 0 1.748.925 2.755 2.385 2.755Zm2.508 1.748c-.843.637-1.809 1.028-3.187 1.028-2.899 0-4.996-1.789-4.996-5.47 0-3.66 2.406-5.633 5.49-5.633.72 0 1.419.103 2.056.35V9.05h3.249v15h-2.057l-.555-.78ZM47.6 17.78V9.932h3.372v7.786c0 2.797 1.254 3.372 2.981 3.372 1.872 0 2.838-.822 2.838-3.372V9.932h3.392v7.848c0 4.626-2.014 6.559-6.394 6.559-4.071 0-6.189-1.665-6.189-6.56ZM39.007 18.368a1.036 1.036 0 0 0-.459-.215c-.989.986-2.195 2.024-3.267 2.722-.494.328-1.116.493-1.528.493-.948 0-1.36-.904-1.483-2.34-.165-1.93-.277-4.241-.277-7.813 0-3.664-.83-6.154-3.046-6.35a3.219 3.219 0 0 0-.287-.014c-1.36 0-2.019.698-2.884 2.464-.741 1.518-1.895 3.735-4.037 7.923-1.855 3.613-3.915 6.816-5.687 9.033-.493.614-.883 1.036-1.25 1.277-.244.16-.48.241-.727.241-.7 0-1.21-.59-1.38-1.964a9.114 9.114 0 0 1-.062-1.115c0-2.832 1.071-7.43 2.925-14.205 1.36-4.927.783-8.293-2.184-8.293h-.035c-.672.008-1.229.252-1.765.674-.529.416-1.057 1.314-1.55 2.522C9.466 4.77 6.083 11.554.7 15.05c-.063 1.329.689 2.657 2.213 2.801 1.388.132 2.373-.453 3.642-1.305a352.766 352.766 0 0 0-.503 2.277l-.176.808a22.675 22.675 0 0 0-.384 2.305c-.759 6.786 2.386 10.135 6.07 10.135.615 0 1.225-.073 1.83-.227 4.06-1.03 7.966-5.684 12.59-16.4a29.765 29.765 0 0 0-.027 3.264c.305 6.142 2.734 7.985 6.166 7.985 2.596 0 5.027-1.355 6.263-3.039.906-1.19 1.277-2.504 1.277-3.53 0-.797-.253-1.433-.654-1.756Z"/></g></g></symbol><symbol id="webflow"><g fill="none"><path d="M23.069 7.027c0-1.282-1.247-2.643-3.403-2.643-2.422 0-5.082 1.776-5.489 5.32-.415 3.58 1.812 5.171 4.057 5.171s3.42-.875 4.622-2.041c-1.034-1.3-2.368-.699-2.625-.566-.282.141-.645.336-1.387.336-.866 0-1.75-.39-1.75-2.007 5.55-.548 5.975-2.289 5.975-3.57Zm-2.75.212c-.035.397-.194 1.078-3.004 1.458.592-2.103 1.723-2.263 2.245-2.263.486 0 .795.38.76.805Zm-9.403.344s-1.194 3.748-1.29 4.057c-.036-.318-.911-7.044-.911-7.044-2.033 0-3.12 1.45-3.695 2.979l-1.573 4.074c-.009-.291-.22-4.03-.22-4.03C3.101 5.745 1.386 4.605 0 4.605l1.68 10.19c2.13-.008 3.278-1.449 3.88-2.978 0 0 1.281-3.314 1.334-3.465.009.142.92 6.444.92 6.444 2.138 0 3.287-1.353 3.906-2.829l2.996-7.362c-2.112 0-3.226 1.44-3.8 2.978Zm20.001-3.217c-1.317 0-2.324.716-3.173 1.768v-.009L28.504 0c-1.75 0-3.173 1.52-3.447 3.783l-1.325 10.933c1.007 0 2.076-.291 2.651-1.034.513.663 1.282 1.193 2.422 1.193 2.952 0 4.976-3.43 4.976-6.646-.018-2.935-1.44-3.863-2.864-3.863Zm-.274 5.26c-.31 1.793-1.308 3.013-2.271 3.013-.973 0-1.388-.433-1.388-.433.186-1.573.3-2.537.654-3.367.354-.831 1.193-2.157 2.068-2.157.858 0 1.247 1.14.937 2.943Zm10.51-5.021h-2.06l.009-.106c.141-1.344.46-2.05 1.511-2.166.716-.07 1.034-.442 1.114-.848.062-.318.256-1.423.256-1.423-4.136-.027-5.436 1.759-5.771 4.481l-.01.062h-.044c-.671 0-1.414.76-1.538 1.723l-.044.354h1.38l-1.159 9.563-.353 1.715c.044 0 .097.009.141.009 1.936-.071 3.173-1.6 3.447-3.819l.902-7.468h.645c.636 0 1.379-.636 1.511-1.697l.062-.38Zm10.712-.177c-2.378 0-4.623 1.75-5.312 4.499-.69 2.749.353 6.001 3.853 6.001 3.491 0 5.507-3.385 5.507-6.204 0-2.802-1.9-4.296-4.048-4.296Zm.963 5.109c-.124 1.246-.672 3.137-2.174 3.137-1.512 0-1.3-2.21-1.15-3.261.16-1.122.787-2.722 2.14-2.722 1.21 0 1.325 1.44 1.184 2.846Zm14.831-1.954s-1.193 3.748-1.29 4.057c-.036-.318-.91-7.044-.91-7.044-2.034 0-3.12 1.45-3.695 2.979 0 0-1.45 3.756-1.574 4.074-.008-.291-.22-4.03-.22-4.03-.124-1.874-1.839-3.014-3.227-3.014l1.67 10.19c2.131-.008 3.28-1.449 3.881-2.978 0 0 1.282-3.314 1.326-3.465.009.142.919 6.444.919 6.444 2.139 0 3.288-1.353 3.907-2.829l2.996-7.362c-2.104 0-3.217 1.44-3.783 2.978ZM43.097.062l-1.733 13.974-.353 1.723c.044 0 .097.009.141.009 1.865-.027 3.19-1.662 3.438-3.721l1-8.017c.3-2.448-1.159-3.968-2.493-3.968Z" fill="#A7AAB4"/></g></symbol><symbol id="yahoo"><g fill="none"><g clip-path="url(#a)"><path d="M0 4.356h3.836l2.227 5.705 2.26-5.705h3.738L6.437 17.88H2.682l1.544-3.576L0 4.356Zm15.945-.227c-2.877 0-4.697 2.584-4.697 5.152 0 2.893 2 5.185 4.649 5.185 1.982 0 2.73-1.203 2.73-1.203v.943h3.349v-9.85h-3.349v.894c-.016 0-.845-1.121-2.682-1.121Zm.715 3.17c1.333 0 2.016 1.056 2.016 1.998 0 1.024-.731 2.032-2.015 2.032-1.057 0-2.016-.861-2.016-1.983 0-1.138.764-2.048 2.015-2.048Zm6.453 6.907V0h3.495v5.283s.829-1.154 2.568-1.154c2.13 0 3.381 1.592 3.381 3.852v6.225h-3.478v-5.38c0-.764-.358-1.512-1.187-1.512-.845 0-1.284.748-1.284 1.512v5.38h-3.495ZM38.523 4.13c-3.3 0-5.267 2.503-5.267 5.2 0 3.057 2.373 5.153 5.282 5.153 2.813 0 5.267-1.999 5.267-5.103 0-3.397-2.585-5.25-5.283-5.25Zm.032 3.185c1.17 0 1.967.976 1.967 2 0 .877-.748 1.966-1.967 1.966-1.122 0-1.95-.894-1.95-1.983 0-1.024.682-1.983 1.95-1.983ZM49.624 4.13c-3.3 0-5.267 2.503-5.267 5.2 0 3.057 2.374 5.153 5.283 5.153 2.812 0 5.266-1.999 5.266-5.103 0-3.397-2.568-5.25-5.282-5.25Zm.032 3.185c1.17 0 1.967.976 1.967 2 0 .877-.748 1.966-1.967 1.966-1.121 0-1.95-.894-1.95-1.983 0-1.024.699-1.983 1.95-1.983ZM57.67 9.77a2.324 2.324 0 1 1 0 4.647 2.324 2.324 0 0 1 0-4.647Zm3.088-.845H56.58L60.286 0h4.162l-3.69 8.924Z" fill="#A7AAB4"/></g></g></symbol><symbol id="zendesk"><g fill="none"><path d="M61.993 5.3c3.982 0 6.24 3.041 6.037 7.263h-9.392a3.392 3.392 0 0 0 3.696 2.866 4.608 4.608 0 0 0 3.309-1.29l1.64 1.779a6.451 6.451 0 0 1-4.93 1.954c-4.01 0-6.6-2.673-6.6-6.286a6.148 6.148 0 0 1 6.24-6.286Zm-42.978 0c3.981 0 6.24 3.041 6.037 7.263h-9.383a3.392 3.392 0 0 0 3.686 2.866 4.608 4.608 0 0 0 3.31-1.29l1.64 1.779a6.452 6.452 0 0 1-4.931 1.954c-4.01 0-6.6-2.673-6.6-6.286a6.148 6.148 0 0 1 6.24-6.286Zm60.638 2.258L77.505 8.81a3.115 3.115 0 0 0-2.7-1.373c-1.374 0-2.074.673-2.074 1.447s1.106 1.106 2.848 1.493l.119.027.12.026.18.042.12.029.12.03.121.03.12.032c1.703.456 3.321 1.248 3.321 3.379 0 1.668-1.447 3.908-4.876 3.89a5.64 5.64 0 0 1-5.29-2.793l2.313-1.245a3.438 3.438 0 0 0 3.088 1.76c1.447 0 2.194-.746 2.194-1.594 0-.848-1.401-1.18-2.922-1.493l-.124-.026-.123-.027-.062-.014-.123-.028c-1.91-.441-3.743-1.185-3.743-3.5 0-1.907 1.843-3.686 4.663-3.686a5.53 5.53 0 0 1 4.858 2.34ZM53.329 0v17.623h-2.562v-1.66a5.134 5.134 0 0 1-4.028 1.909 6.074 6.074 0 0 1-6.019-6.286 6.019 6.019 0 0 1 6.037-6.277 5.198 5.198 0 0 1 4.01 1.843V0h2.562ZM10.6 5.595v2.36l-7.244 7.373h7.373v2.322H0V15.3l7.245-7.373H.165V5.595H10.6ZM84.436 0v11.54l5.429-6.01h3.115l-4.71 5.17 4.82 6.923h-2.884l-3.742-5.355-2.028 2.221v3.143h-2.562V0h2.562ZM33.107 5.309c3.042 0 5.604 1.982 5.604 5.263v7.05h-2.636v-6.728c0-1.972-.959-3.161-2.894-3.161a2.857 2.857 0 0 0-3.05 3.161v6.729h-2.61v-7.051c0-3.281 2.545-5.263 5.586-5.263Zm13.982 2.46a3.816 3.816 0 1 0 0 7.633 3.816 3.816 0 0 0 0-7.632Zm11.54 2.775 6.572.01a3.014 3.014 0 0 0-3.171-2.849 3.235 3.235 0 0 0-3.401 2.84Zm-42.96 0 6.553.01a3.014 3.014 0 0 0-3.17-2.84 3.235 3.235 0 0 0-3.383 2.83Z" fill="#A7AAB4"/></g></symbol></svg>