<svg width="27" height="27" viewBox="0 0 27 27" fill="none" xmlns="http://www.w3.org/2000/svg">
<path fill-rule="evenodd" clip-rule="evenodd" d="M6.33338 15.403C11.7587 15.403 12.0001 17.2434 12.0001 21.0709C12.0001 22.9887 12.0001 24.353 11.1947 25.3519C10.2681 26.5028 8.58138 26.7389 6.33338 26.7389C4.08538 26.7389 2.39872 26.5028 1.47205 25.3519C0.666718 24.353 0.666718 22.99 0.666718 21.1043L1.66672 21.0709H0.666718C0.666718 17.2434 0.908051 15.403 6.33338 15.403ZM21.0001 15.403C26.4254 15.403 26.6667 17.2434 26.6667 21.0709C26.6667 22.9887 26.6667 24.353 25.8614 25.3519C24.9347 26.5028 23.2481 26.7389 21.0001 26.7389C18.7521 26.7389 17.0654 26.5028 16.1387 25.3519C15.3334 24.353 15.3334 22.99 15.3334 21.1043L16.3334 21.0709H15.3334C15.3334 17.2434 15.5747 15.403 21.0001 15.403ZM6.60826 17.404L6.33338 17.4034C2.85475 17.4034 2.67636 17.6531 2.66721 20.5736L2.66777 21.7113C2.67409 22.8729 2.71834 23.7119 3.02805 24.0983C3.38138 24.5357 4.43072 24.7384 6.33338 24.7384C8.23605 24.7384 9.28538 24.5344 9.63872 24.097C10.0001 23.6475 10.0001 22.5806 10.0001 21.1029C10.0001 17.7686 10.0001 17.4197 6.60826 17.404ZM21.2749 17.404L21.0001 17.4034C17.5214 17.4034 17.343 17.6531 17.3339 20.5736L17.3344 21.7113C17.3408 22.8729 17.385 23.7119 17.6947 24.0983C18.0481 24.5357 19.0974 24.7384 21.0001 24.7384C22.9027 24.7384 23.9521 24.5344 24.3054 24.097C24.6667 23.6475 24.6667 22.5806 24.6667 21.1029C24.6667 17.7686 24.6667 17.4197 21.2749 17.404ZM6.33338 0.732998C11.7587 0.732998 12.0001 2.57341 12.0001 6.40095C12.0001 8.31871 12.0001 9.68302 11.1947 10.6819C10.2681 11.8328 8.58138 12.0689 6.33338 12.0689C4.08538 12.0689 2.39872 11.8328 1.47205 10.6819C0.666718 9.68302 0.666718 8.32005 0.666718 6.43429L1.66672 6.40095H0.666718C0.666718 2.57341 0.908051 0.732998 6.33338 0.732998ZM21.0001 0.732998C26.4254 0.732998 26.6667 2.57341 26.6667 6.40095C26.6667 8.31871 26.6667 9.68302 25.8614 10.6819C24.9347 11.8328 23.2481 12.0689 21.0001 12.0689C18.7521 12.0689 17.0654 11.8328 16.1387 10.6819C15.3334 9.68302 15.3334 8.32005 15.3334 6.43429L16.3334 6.40095H15.3334C15.3334 2.57341 15.5747 0.732998 21.0001 0.732998ZM6.60826 2.73405L6.33338 2.73345C2.85475 2.73345 2.67636 2.98313 2.66721 5.90357L2.66777 7.04133C2.67409 8.20288 2.71834 9.04193 3.02805 9.4283C3.38138 9.86573 4.43072 10.0684 6.33338 10.0684C8.23605 10.0684 9.28538 9.8644 9.63872 9.42696C10.0001 8.97753 10.0001 7.91062 10.0001 6.43295C10.0001 3.09859 10.0001 2.74974 6.60826 2.73405ZM21.2749 2.73405L21.0001 2.73345C17.5214 2.73345 17.343 2.98313 17.3339 5.90357L17.3344 7.04133C17.3408 8.20288 17.385 9.04193 17.6947 9.4283C18.0481 9.86573 19.0974 10.0684 21.0001 10.0684C22.9027 10.0684 23.9521 9.8644 24.3054 9.42696C24.6667 8.97753 24.6667 7.91062 24.6667 6.43295C24.6667 3.09859 24.6667 2.74974 21.2749 2.73405Z" fill="#FE390C"/>
</svg>
