<svg width="18" height="22" viewBox="0 0 18 22" fill="none" xmlns="http://www.w3.org/2000/svg">
<path d="M9 0.715088C4.0374 0.715088 0 4.64173 0 9.46819C0 15.0299 3.7107 18.3854 6.17175 20.6061C6.95475 21.3461 7.98165 21.7151 9.0063 21.7151C10.0287 21.7151 11.0489 21.3475 11.8206 20.6135C14.2812 18.3929 18 15.0356 18 9.46819C18 4.64173 13.9626 0.715088 9 0.715088ZM9 12.9694C7.01505 12.9694 5.4 11.3987 5.4 9.46819C5.4 7.53769 7.01505 5.96695 9 5.96695C10.985 5.96695 12.6 7.53769 12.6 9.46819C12.6 11.3987 10.985 12.9694 9 12.9694Z" fill="#FE390C"/>
</svg>
