<svg width="28" height="28" viewBox="0 0 28 28" fill="none" xmlns="http://www.w3.org/2000/svg">
<path fill-rule="evenodd" clip-rule="evenodd" d="M13.3228 0.781963C13.8748 0.781963 14.3228 1.23006 14.3228 1.78219C14.3228 2.33431 13.8748 2.78242 13.3228 2.78242H8.33747C4.89214 2.78242 2.66681 5.14295 2.66681 8.79578V19.8836C2.66681 23.5364 4.89214 25.897 8.33747 25.897H20.1028C23.5481 25.897 25.7748 23.5364 25.7748 19.8836V14.5117C25.7748 13.9596 26.2228 13.5115 26.7748 13.5115C27.3268 13.5115 27.7748 13.9596 27.7748 14.5117V19.8836C27.7748 24.6767 24.6908 27.8974 20.1028 27.8974H8.33747C3.74948 27.8974 0.666809 24.6767 0.666809 19.8836V8.79578C0.666809 4.00269 3.74948 0.781963 8.33747 0.781963H13.3228ZM24.9356 1.95369L26.5583 3.57673C27.3489 4.36624 27.7836 5.41581 27.7823 6.5334C27.7823 7.65098 27.3476 8.69922 26.5583 9.4874L16.5463 19.5017C15.8116 20.2365 14.8329 20.6419 13.7929 20.6419H8.79827C8.52894 20.6419 8.27028 20.5326 8.08227 20.3392C7.89428 20.1471 7.79161 19.8871 7.79827 19.6164L7.92361 14.5765C7.94894 13.5737 8.35294 12.6308 9.06227 11.9199H9.06361L19.0276 1.95369C20.6569 0.32666 23.3063 0.32666 24.9356 1.95369ZM18.2068 5.60252L10.4769 13.3349C10.1316 13.6803 9.93561 14.1391 9.92361 14.6259L9.82361 18.6415H13.7929C14.2996 18.6415 14.7743 18.4454 15.1329 18.0867L22.9095 10.3063L18.2068 5.60252ZM20.4409 3.36868L19.6201 4.18753L24.3228 8.8926L25.1449 8.07241C25.5556 7.66165 25.7823 7.11486 25.7823 6.5334C25.7823 5.9506 25.5556 5.40247 25.1449 4.99171L23.5223 3.36868C22.6729 2.52182 21.2916 2.52182 20.4409 3.36868Z" fill="#FE390C"/>
</svg>
