<svg width="29" height="30" viewBox="0 0 29 30" fill="none" xmlns="http://www.w3.org/2000/svg">
<path fill-rule="evenodd" clip-rule="evenodd" d="M20.9147 0.399632C25.7507 0.399632 29 3.79507 29 8.84821V20.6242C29 25.6773 25.7507 29.0728 20.9147 29.0728H8.4187C3.5827 29.0728 0.333366 25.6773 0.333366 20.6242V8.84821C0.333366 3.79507 3.5827 0.399632 8.4187 0.399632H20.9147ZM20.9147 2.40008H8.4187C4.7227 2.40008 2.33337 4.92999 2.33337 8.84821V20.6242C2.33337 24.5424 4.7227 27.0723 8.4187 27.0723H20.9147C24.612 27.0723 27 24.5424 27 20.6242V8.84821C27 4.92999 24.612 2.40008 20.9147 2.40008ZM8.49483 11.3388C9.04683 11.3388 9.49483 11.7869 9.49483 12.339V21.4877C9.49483 22.0399 9.04683 22.488 8.49483 22.488C7.94283 22.488 7.49483 22.0399 7.49483 21.4877V12.339C7.49483 11.7869 7.94283 11.3388 8.49483 11.3388ZM14.7175 6.95912C15.2695 6.95912 15.7175 7.40722 15.7175 7.95934V21.4864C15.7175 22.0385 15.2695 22.4866 14.7175 22.4866C14.1655 22.4866 13.7175 22.0385 13.7175 21.4864V7.95934C13.7175 7.40722 14.1655 6.95912 14.7175 6.95912ZM20.8379 16.1732C21.3899 16.1732 21.8379 16.6213 21.8379 17.1734V21.4864C21.8379 22.0385 21.3899 22.4866 20.8379 22.4866C20.2859 22.4866 19.8379 22.0385 19.8379 21.4864V17.1734C19.8379 16.6213 20.2859 16.1732 20.8379 16.1732Z" fill="#FE390C"/>
</svg>
