<svg width="112" height="33" viewBox="0 0 112 33" fill="none" xmlns="http://www.w3.org/2000/svg">
<path d="M5.86108 0.40988C3.5715 1.36902 1.05448 4.07527 0.259532 7.4746C-0.74724 11.7805 3.44234 13.6017 3.78596 13.0054C4.1904 12.3038 3.03526 12.0666 2.79746 9.83234C2.49017 6.94665 3.83172 3.72223 5.52028 2.30744C5.83396 2.04459 5.81909 2.41043 5.81909 3.08714C5.81909 4.29726 5.75225 15.1605 5.75225 17.4277C5.75225 20.4954 5.62553 21.4642 5.39789 22.4214C5.16743 23.3915 4.79669 24.0469 5.07743 24.2994C5.3913 24.5818 6.73134 23.91 7.50708 22.8274C8.43722 21.5289 8.76277 19.9695 8.82133 18.2761C8.89194 16.2347 8.88892 12.9954 8.89194 11.1477C8.89457 9.45313 8.92037 4.49101 8.86219 1.50797C8.84788 0.776287 6.81871 0.00864014 5.86108 0.40988Z" fill="#A7AAB4"/>
<path d="M87.1637 14.7668C87.0898 16.3616 86.7368 17.6082 86.2987 18.4875C85.4504 20.1898 83.6903 20.7184 82.943 18.2714C82.5357 16.9376 82.5167 14.7097 82.8095 12.8483C83.1076 10.9521 83.9398 9.51998 85.3179 9.64915C86.6771 9.7768 87.3133 11.5283 87.1637 14.7668ZM64.2487 24.6617C64.2303 27.3116 63.8132 29.6351 62.9189 30.3099C61.6504 31.2668 59.9454 30.549 60.2985 28.6153C60.6108 26.9042 62.0881 25.1567 64.2523 23.0215C64.2523 23.0215 64.2568 23.5084 64.2487 24.6617ZM63.9023 14.7512C63.8247 16.2038 63.4481 17.663 63.0373 18.4875C62.1892 20.1898 60.4163 20.7219 59.6816 18.2714C59.1793 16.5969 59.2996 14.4299 59.5481 13.0645C59.8707 11.2929 60.6524 9.64933 62.0565 9.64933C63.4216 9.64933 64.0947 11.147 63.9023 14.7512ZM50.6278 14.7291C50.5446 16.2674 50.2445 17.5534 49.7628 18.4875C48.8915 20.1782 47.1675 20.7142 46.4072 18.2714C45.8591 16.5098 46.0457 14.108 46.2737 12.8105C46.612 10.8851 47.4593 9.51998 48.7821 9.64933C50.1407 9.78208 50.8013 11.5283 50.6278 14.7291ZM111.461 16.526C111.129 16.526 110.978 16.8685 110.852 17.4446C110.417 19.4486 109.96 19.9008 109.371 19.9008C108.712 19.9008 108.12 18.9087 107.968 16.9225C107.849 15.3607 107.868 12.4855 108.021 9.62542C108.052 9.03778 107.89 8.45635 106.314 7.88376C105.635 7.63749 104.65 7.27484 104.159 8.45973C102.772 11.8073 102.229 14.465 102.101 15.5444C102.095 15.6003 102.026 15.6118 102.014 15.4812C101.933 14.6165 101.751 13.0451 101.728 9.74385C101.724 9.09972 101.588 8.55143 100.877 8.10255C100.415 7.81127 99.0145 7.29612 98.51 7.909C98.073 8.41022 97.5669 9.75911 97.041 11.358C96.6136 12.6576 96.3159 13.5367 96.3159 13.5367C96.3159 13.5367 96.3216 10.0302 96.3266 8.70018C96.3289 8.19839 95.9847 8.03119 95.881 8.00088C95.4138 7.8655 94.4935 7.63899 94.1028 7.63899C93.6208 7.63899 93.5027 7.90824 93.5027 8.30082C93.5027 8.35241 93.4267 12.9174 93.4267 16.1097C93.4267 16.2484 93.4268 16.3996 93.4274 16.5604C93.1608 18.0275 92.2962 20.0193 91.3559 20.0193C90.4144 20.0193 89.9703 19.1866 89.9703 15.381C89.9703 13.1611 90.0369 12.1955 90.0697 10.5898C90.0887 9.66496 90.1254 8.95474 90.1233 8.79357C90.1164 8.29931 89.2617 8.05021 88.8641 7.95814C88.4645 7.8655 88.1173 7.82935 87.8462 7.84479C87.4625 7.86663 87.1909 8.11818 87.1909 8.46444C87.1909 8.65028 87.193 9.00313 87.193 9.00313C86.6988 8.22645 85.9038 7.68587 85.3749 7.52922C83.9503 7.10614 82.4638 7.48121 81.3426 9.05002C80.4514 10.2967 79.9142 11.7086 79.7028 13.7372C79.5482 15.2204 79.5986 16.7242 79.8734 17.9961C79.5414 19.4312 78.9251 20.0193 78.2503 20.0193C77.2707 20.0193 76.5604 18.4203 76.6429 15.6548C76.6973 13.8359 77.0613 12.5593 77.4591 10.7126C77.6288 9.92536 77.491 9.5132 77.1453 9.11818C76.8282 8.75591 76.1526 8.57083 75.1814 8.79846C74.4897 8.96077 73.5006 9.13531 72.5957 9.26937C72.5957 9.26937 72.6503 9.05152 72.6951 8.66742C72.9305 6.65312 70.7416 6.81655 70.0433 7.45993C69.6264 7.84404 69.3426 8.29706 69.2349 9.11159C69.0642 10.4042 70.1184 11.0139 70.1184 11.0139C69.7725 12.5973 68.9246 14.6655 68.0493 16.1609C67.5805 16.962 67.2218 17.5557 66.7588 18.1868C66.7571 17.9519 66.7558 17.7167 66.755 17.4828C66.7445 14.1541 66.7887 11.5345 66.8083 10.59C66.8273 9.66515 66.8644 8.97376 66.8623 8.81259C66.8571 8.45126 66.646 8.31457 66.2069 8.14172C65.8187 7.98883 65.3596 7.88301 64.8834 7.84611C64.2824 7.79941 63.9203 8.11799 63.9298 8.49494C63.9316 8.56612 63.9317 9.00313 63.9317 9.00313C63.4374 8.22645 62.6424 7.68587 62.1135 7.52922C60.689 7.10633 59.2024 7.48121 58.0812 9.05002C57.1902 10.2967 56.6067 12.046 56.4414 13.7218C56.2874 15.2836 56.3158 16.6107 56.5257 17.7289C56.2992 18.8485 55.648 20.0193 54.9116 20.0193C53.9701 20.0193 53.4344 19.1866 53.4344 15.381C53.4344 13.1611 53.5011 12.1955 53.5339 10.59C53.5529 9.66515 53.5896 8.95474 53.5875 8.79376C53.5806 8.2995 52.7259 8.0504 52.3283 7.95814C51.9121 7.86192 51.5529 7.82653 51.2771 7.84705C50.9131 7.87397 50.6572 8.1999 50.6572 8.44298V9.00313C50.163 8.22645 49.368 7.68587 48.8391 7.52922C47.4145 7.10633 45.9363 7.48723 44.8068 9.05002C44.0702 10.069 43.4739 11.1987 43.167 13.6996C43.0783 14.4222 43.0391 15.0991 43.0442 15.7316C42.7505 17.528 41.4532 19.5982 40.392 19.5982C39.771 19.5982 39.1796 18.3938 39.1796 15.8268C39.1796 12.4076 39.3912 7.53939 39.427 7.07018C39.427 7.07018 40.7678 7.04739 41.0275 7.04438C41.6962 7.03704 42.302 7.05285 43.1928 7.00729C43.6396 6.9845 44.07 5.38105 43.6089 5.1826C43.3999 5.09278 41.9228 5.01408 41.3372 5.00165C40.8448 4.99054 39.4741 4.88906 39.4741 4.88906C39.4741 4.88906 39.597 1.65767 39.6257 1.31631C39.6499 1.0318 39.2818 0.885317 39.0708 0.796446C38.5575 0.579351 38.0983 0.475416 37.5539 0.363197C36.8019 0.208048 36.4607 0.359808 36.3941 0.994524C36.2937 1.9578 36.2418 4.77928 36.2418 4.77928C35.6899 4.77928 33.8048 4.6714 33.2527 4.6714C32.7398 4.6714 32.1862 6.87718 32.8953 6.90429C33.7112 6.93593 35.1329 6.96342 36.0755 6.99166C36.0755 6.99166 36.0335 11.9402 36.0335 13.4682C36.0335 13.6307 36.0343 13.7871 36.0352 13.9391C35.5165 16.6427 33.6893 18.1032 33.6893 18.1032C34.0817 16.3145 33.2802 14.9713 31.8364 13.8342C31.3045 13.4153 30.2544 12.622 29.0795 11.7527C29.0795 11.7527 29.76 11.0822 30.3634 9.73275C30.791 8.77681 30.8095 7.68324 29.76 7.44204C28.0258 7.04325 26.596 8.31683 26.1695 9.67645C25.8391 10.7299 26.0153 11.5113 26.6626 12.3232C26.7099 12.3825 26.7611 12.4431 26.814 12.5041C26.4226 13.2586 25.8848 14.2744 25.4294 15.0622C24.1652 17.2494 23.2102 18.9793 22.4885 18.9793C21.9116 18.9793 21.9193 17.2228 21.9193 15.5783C21.9193 14.1607 22.024 12.0293 22.1076 9.82256C22.1353 9.09276 21.7704 8.67702 21.1586 8.30044C20.787 8.07168 19.9937 7.62186 19.5343 7.62186C18.8467 7.62186 16.8627 7.71544 14.9881 13.1379C14.7518 13.8214 14.2877 15.0667 14.2877 15.0667L14.3278 8.54597C14.3278 8.39308 14.2462 8.24528 14.0598 8.14417C13.7439 7.97264 12.9002 7.62186 12.15 7.62186C11.7927 7.62186 11.6142 7.78811 11.6142 8.1195L11.5488 18.3213C11.5488 19.0966 11.569 20.0008 11.6456 20.3962C11.7221 20.7922 11.8458 21.1143 11.9988 21.306C12.1519 21.4973 12.3289 21.6432 12.6206 21.7035C12.8921 21.7594 14.3792 21.9503 14.4564 21.3821C14.549 20.701 14.5526 19.9645 15.3334 17.2174C16.549 12.9404 18.1336 10.8536 18.8788 10.1125C19.0091 9.98298 19.1579 9.97526 19.1507 10.1873C19.1189 11.1249 19.0071 13.4682 18.9318 15.4586C18.7299 20.7856 19.699 21.773 21.0839 21.773C22.1434 21.773 23.6369 20.7202 25.2379 18.0554C26.236 16.3947 27.2051 14.7664 27.9014 13.5928C28.3866 14.0421 28.9311 14.5254 29.4753 15.0419C30.7398 16.242 31.155 17.3825 30.8795 18.4644C30.6688 19.2915 29.8754 20.1439 28.4632 19.3154C28.0516 19.0737 27.876 18.8869 27.4621 18.6144C27.2397 18.4681 26.9003 18.4243 26.6967 18.5777C26.168 18.9763 25.8656 19.4834 25.693 20.1111C25.525 20.7219 26.1368 21.0449 26.7709 21.3273C27.3169 21.5704 28.4905 21.7907 29.239 21.8157C32.1552 21.9132 34.4912 20.4077 36.1175 16.5241C36.4086 19.8782 37.6475 21.776 39.8 21.776C41.2391 21.776 42.6819 19.9159 43.3129 18.0859C43.494 18.8319 43.7621 19.4806 44.1084 20.0292C45.767 22.6572 48.9847 22.0915 50.6009 19.86C51.1006 19.1705 51.1767 18.9227 51.1767 18.9227C51.4124 21.0298 53.1093 21.766 54.0808 21.766C55.169 21.766 56.2925 21.2516 57.0799 19.4789C57.1721 19.6713 57.2729 19.8551 57.3828 20.0292C59.0415 22.6572 62.2591 22.0915 63.8754 19.86C63.9516 19.7553 64.0177 19.6604 64.0755 19.5751L64.1229 20.9592C64.1229 20.9592 63.2009 21.805 62.6349 22.3239C60.1407 24.6099 58.2459 26.3438 58.1066 28.363C57.9292 30.9377 60.016 31.8945 61.5973 32.0199C63.2734 32.153 64.7113 31.2263 65.5938 29.9294C66.3705 28.7878 66.8789 26.3308 66.8416 23.9042C66.8268 22.9324 66.8023 21.6969 66.7831 20.3725C67.6586 19.3557 68.645 18.0705 69.5533 16.5664C70.5432 14.9272 71.604 12.7258 72.1472 11.0125C72.1472 11.0125 73.0688 11.0204 74.0525 10.956C74.3671 10.9355 74.4575 10.9997 74.3993 11.2304C74.3291 11.509 73.1566 16.0313 74.2266 19.0439C74.9591 21.1062 76.6102 21.7698 77.5891 21.7698C78.735 21.7698 79.8312 20.9044 80.4186 19.6193C80.4894 19.7626 80.5634 19.9012 80.6442 20.0292C82.3028 22.6572 85.5092 22.0882 87.1367 19.86C87.5041 19.3572 87.7125 18.9227 87.7125 18.9227C88.0618 21.1034 89.7577 21.7771 90.7291 21.7771C91.7409 21.7771 92.7012 21.3623 93.4803 19.5188C93.5129 20.3305 93.5641 20.9942 93.6451 21.2034C93.6944 21.3314 93.9819 21.492 94.1911 21.5696C95.1167 21.9129 96.0608 21.7506 96.4101 21.6799C96.652 21.631 96.8407 21.4369 96.8665 20.9356C96.9343 19.6195 96.8926 17.4083 97.2916 15.7647C97.9614 13.0067 98.5861 11.9368 98.8825 11.4072C99.0483 11.1104 99.2355 11.0615 99.2423 11.3756C99.2562 12.011 99.2878 13.8771 99.5473 16.3844C99.7378 18.2283 99.9924 19.3183 100.188 19.6632C100.746 20.6496 101.436 20.6963 101.997 20.6963C102.354 20.6963 103.101 20.5977 103.035 19.9699C103.002 19.664 103.059 17.773 103.719 15.0558C104.151 13.2814 104.869 11.6783 105.129 11.092C105.224 10.8758 105.269 11.0462 105.267 11.0794C105.213 12.3014 105.09 16.2983 105.588 18.4843C106.263 21.4457 108.215 21.7771 108.895 21.7771C110.347 21.7771 111.535 20.6724 111.935 17.7656C112.032 17.0662 111.889 16.526 111.461 16.526Z" fill="#A7AAB4"/>
</svg>
